0
SECTION
2
HEADER
9
$INSUNITS
70
4
9
$ACADVER
1
AC1014
9
$HANDSEED
5
FFFF
0
ENDSEC
0
SECTION
2
TABLES
0
TABLE
2
VPORT
5
8
100
AcDbSymbolTable
0
ENDTAB
0
TABLE
2
LTYPE
5
5
100
AcDbSymbolTable
0
LTYPE
5
14
100
AcDbSymbolTableRecord
100
AcDbLinetypeTableRecord
2
BYBLOCK
70
0
0
LTYPE
5
15
100
AcDbSymbolTableRecord
100
AcDbLinetypeTableRecord
2
BYLAYER
70
0
0
ENDTAB
0
TABLE
2
LAYER
5
2
100
AcDbSymbolTable
70
2
0
LAYER
5
50
100
AcDbSymbolTableRecord
100
AcDbLayerTableRecord
2
0
70
0
6
CONTINUOUS
0
ENDTAB
0
TABLE
2
STYLE
5
3
100
AcDbSymbolTable
70
1
0
STYLE
5
11
100
AcDbSymbolTableRecord
100
AcDbTextStyleTableRecord
2
STANDARD
70
0
0
ENDTAB
0
TABLE
2
VIEW
5
6
100
AcDbSymbolTable
70
0
0
ENDTAB
0
TABLE
2
UCS
5
7
100
AcDbSymbolTable
70
0
0
ENDTAB
0
TABLE
2
APPID
5
9
100
AcDbSymbolTable
70
2
0
APPID
5
12
100
AcDbSymbolTableRecord
100
AcDbRegAppTableRecord
2
ACAD
70
0
0
ENDTAB
0
TABLE
2
DIMSTYLE
5
A
100
AcDbSymbolTable
70
1
0
ENDTAB
0
TABLE
2
BLOCK_RECORD
5
1
100
AcDbSymbolTable
70
1
0
BLOCK_RECORD
5
1F
100
AcDbSymbolTableRecord
100
AcDbBlockTableRecord
2
*MODEL_SPACE
0
BLOCK_RECORD
5
1B
100
AcDbSymbolTableRecord
100
AcDbBlockTableRecord
2
*PAPER_SPACE
0
ENDTAB
0
ENDSEC
0
SECTION
2
BLOCKS
0
BLOCK
5
20
100
AcDbEntity
100
AcDbBlockBegin
2
*MODEL_SPACE
0
ENDBLK
5
21
100
AcDbEntity
100
AcDbBlockEnd
0
BLOCK
5
1C
100
AcDbEntity
100
AcDbBlockBegin
2
*PAPER_SPACE
0
ENDBLK
5
1D
100
AcDbEntity
100
AcDbBlockEnd
0
ENDSEC
0
SECTION
2
ENTITIES
0
LWPOLYLINE
5
100
100
AcDbEntity
8
0
100
AcDbPolyline
90
8
70
1
43
0.0
10
94.500000000000014
20
-34.850000000000058
42
-0.41421356237309503
10
97.500000000000014
20
-37.850000000000072
10
97.500000000000014
20
-81.85000000000008
42
-0.41421356237309503
10
94.500000000000014
20
-84.85000000000008
10
25.500000000000007
20
-84.850000000000065
42
-0.41421356237309503
10
22.500000000000007
20
-81.850000000000051
10
22.500000000000007
20
-37.850000000000065
42
-0.41421356237309465
10
25.500000000000007
20
-34.850000000000065
0
CIRCLE
5
101
100
AcDbEntity
8
0
100
AcDbCircle
10
11.100000000000033
20
52.649999999999864
30
0
40
2.1000000000000307
210
2.4651903288156624e-32
220
6.7034987460370614e-64
230
1
0
CIRCLE
5
102
100
AcDbEntity
8
0
100
AcDbCircle
10
108.90000000000002
20
52.649999999999928
30
0
40
2.1000000000000263
210
6.0379748909462169e-48
220
1.6418836564845146e-79
230
1
0
LWPOLYLINE
5
103
100
AcDbEntity
8
0
100
AcDbPolyline
90
6
70
1
43
0.0
10
62.999999999999972
20
-19.827225575051791
42
-0.25592414111560358
10
63.230769230769198
20
-19.405900530817014
42
3.4220644500148287
10
56.769230769230845
20
-19.405900530817025
42
-0.25592414111561174
10
57.000000000000092
20
-19.827225575051827
10
57.000000000000014
20
-20.350000000000041
42
0.99999999999999989
10
63.000000000000014
20
-20.350000000000001
0
LINE
5
104
100
AcDbEntity
8
0
100
AcDbLine
10
61.500000000000014
20
-3.0252483470939353
30
0
11
61.500000000000021
21
48.885189045680768
31
0
0
SPLINE
5
105
100
AcDbEntity
8
0
100
AcDbSpline
70
0
71
3
72
16
73
12
74
0
42
0.000000001
43
0.0000000001
44
0.0000000001
40
0
40
0
40
0
40
0
40
0.019532223669346729
40
0.019532223669346729
40
0.039064447338692118
40
0.039064447338692118
40
0.058596671008039419
40
0.058596671008039419
40
0.069038441398832265
40
0.069038441398832265
40
0.079480211789627872
40
0.079480211789627872
40
0.079480211789627872
40
0.079480211789627872
10
62.007375441065662
20
49.385134645590476
30
-1.7763568394002505e-14
10
61.942275112532712
20
49.386095037354174
30
-1.7763568394002505e-14
10
61.877609592755576
20
49.374330705470619
30
-1.7763568394002505e-14
10
61.756427827120966
20
49.326676952340058
30
-1.7763568394002505e-14
10
61.701070144992123
20
49.291243126946291
30
-1.7763568394002505e-14
10
61.607053017977421
20
49.201150506062831
30
-1.7763568394002505e-14
10
61.569292428069119
20
49.147353045133059
30
-1.7763568394002505e-14
10
61.528798863805548
20
49.056013341419188
30
-1.7763568394002505e-14
10
61.518053449138044
20
49.022807986520064
30
-1.7763568394002505e-14
10
61.503634352296494
20
48.954705910867169
30
-1.7763568394002505e-14
10
61.500000000000021
20
48.919994946983408
30
-1.7763568394002505e-14
10
61.500000000000021
20
48.885189045680768
30
-1.7763568394002505e-14
0
SPLINE
5
106
100
AcDbEntity
8
0
100
AcDbSpline
70
4
71
2
72
6
73
3
74
0
42
0.000000001
43
0.0000000001
44
0.0000000001
40
4.9168739582291696
40
4.9168739582291696
40
4.9168739582291696
40
8.8923120384222631
40
8.8923120384222631
40
8.8923120384222631
41
1.9921031149805781
41
1.9138687373677101
41
1.0605669976975562
10
62.007375441014219
20
49.385134645591258
30
-1.7763568394002505e-14
10
72.439426060970163
20
49.231235952307046
30
-1.7763568394002505e-14
10
101.12513261631199
20
46.078310973015149
30
0
0
SPLINE
5
107
100
AcDbEntity
8
0
100
AcDbSpline
70
0
71
3
72
18
73
14
74
0
42
0.000000001
43
0.0000000001
44
0.0000000001
40
0
40
0
40
0
40
0
40
0.019532223669346371
40
0.019532223669346371
40
0.03906444733869241
40
0.03906444733869241
40
0.058596671008038129
40
0.058596671008038129
40
0.078128894677385152
40
0.078128894677385152
40
0.09144767001333047
40
0.09144767001333047
40
0.10476644534927566
40
0.10476644534927566
40
0.10476644534927566
40
0.10476644534927566
10
101.47501371807847
20
45.287411457913116
30
0
10
101.51328289480284
20
45.340084460867885
30
0
10
101.54089798858897
20
45.399728702399642
30
0
10
101.57171126863788
20
45.526245271600594
30
0
10
101.57461486314888
20
45.591908031911359
30
0
10
101.5550890918872
20
45.720650584186764
30
0
10
101.53284640313016
20
45.782499527181542
30
0
10
101.46590536787129
20
45.894190163799919
30
0
10
101.42184701415219
20
45.942964034061347
30
0
10
101.33410921485756
20
46.008485464600426
30
0
10
101.29515757345226
20
46.030194179745138
30
0
10
101.21255097806552
20
46.062753978009724
30
0
10
101.16926277027952
20
46.073460506302197
30
0
10
101.12513261631678
20
46.078310973014624
30
0
0
LINE
5
108
100
AcDbEntity
8
0
100
AcDbLine
10
101.47501371807847
20
45.287411457913116
30
0
11
65.442996515890613
21
-4.3064055772845045
31
0
0
ARC
5
109
100
AcDbEntity
8
0
100
AcDbCircle
10
65.03848801870312
20
-4.0125129511382731
30
0
40
0.50000000000000033
210
0
220
0
230
1
100
AcDbArc
50
244.01541016825078
51
324.00000000000171
0
ARC
5
110
100
AcDbEntity
8
0
100
AcDbCircle
10
60.000000000000007
20
-14.35000000000006
30
-1.7763568394002505e-14
40
10.999999999999998
210
-7.0752194879521647e-16
220
-1.4516257566369288e-15
230
1
100
AcDbArc
50
64.01541016825081
51
79.984589831749233
0
ARC
5
111
100
AcDbEntity
8
0
100
AcDbCircle
10
62.000000000000014
20
-3.0252483470939353
30
0
40
0.49999999999999822
210
0
220
-6.4146353042212923e-49
230
1
100
AcDbArc
50
180
51
259.98458983174999
0
LINE
5
112
100
AcDbEntity
8
0
100
AcDbLine
10
72.404430428403373
20
-11.896749569618416
30
-1.7763568394002505e-14
11
106.97431986458551
21
-0.66431159520897731
31
-1.7763568394002505e-14
0
SPLINE
5
113
100
AcDbEntity
8
0
100
AcDbSpline
70
0
71
3
72
18
73
14
74
0
42
0.000000001
43
0.0000000001
44
0.0000000001
40
0
40
0
40
0
40
0
40
0.01953222366934677
40
0.01953222366934677
40
0.039064447338693117
40
0.039064447338693117
40
0.058596671008039031
40
0.058596671008039031
40
0.078128894677386845
40
0.078128894677386845
40
0.089490710990415584
40
0.089490710990415584
40
0.10085252730344581
40
0.10085252730344581
40
0.10085252730344581
40
0.10085252730344581
10
107.62482027446944
20
-1.2030223077228217
30
0
10
107.63304756667382
20
-1.1384368078763383
30
0
10
107.62858121719256
20
-1.0728618074948879
30
0
10
107.5947640296979
20
-0.94711484594233719
30
0
10
107.56573650242879
20
-0.8881450942610446
30
0
10
107.4867113257846
20
-0.78465151008258227
30
0
10
107.43746920017033
20
-0.74111713265850521
30
0
10
107.32506925754686
20
-0.67537404626918696
30
0
10
107.26298604525185
20
-0.65379387704254877
30
0
10
107.16101097983893
20
-0.63944139003590517
30
0
10
107.12302930107212
20
-0.63844109598451093
30
0
10
107.04757143259273
20
-0.64503519042437996
30
0
10
107.01033896272372
20
-0.65260828078333655
30
0
10
106.97431986458552
20
-0.66431159520897831
30
0
0
SPLINE
5
114
100
AcDbEntity
8
0
100
AcDbSpline
70
4
71
2
72
6
73
3
74
0
42
0.000000001
43
0.0000000001
44
0.0000000001
40
5.4942890851785302
40
5.4942890851785302
40
5.4942890851785302
40
6.5251821473640987
40
6.5251821473640987
40
6.5251821473640987
41
1.5384048224355107
41
1.3243184863665336
41
1.0109396067028271
10
107.62482027446686
20
-1.2030223077427347
30
0
10
106.8367097286564
20
-7.3898104113913767
30
0
10
105.08115920053703
20
-18.821981629248818
30
0
0
SPLINE
5
115
100
AcDbEntity
8
0
100
AcDbSpline
70
0
71
3
72
16
73
12
74
0
42
0.000000001
43
0.0000000001
44
0.0000000001
40
0
40
0
40
0
40
0
40
0.019532223669345056
40
0.019532223669345056
40
0.039064447338692875
40
0.039064447338692875
40
0.058596671008039468
40
0.058596671008039468
40
0.070324082595764351
40
0.070324082595764351
40
0.082051494183487395
40
0.082051494183487395
40
0.082051494183487395
40
0.082051494183487395
10
104.47862221676546
20
-19.23421362363618
30
0
10
104.54218313855998
20
-19.248319804836903
30
0
10
104.6078916341621
20
-19.249876261845692
30
0
10
104.73620670460997
20
-19.227714510883608
30
0
10
104.79758651744513
20
-19.20420818133103
30
0
10
104.90788092711254
20
-19.134990815692991
30
0
10
104.95574104927327
20
-19.089941535349396
30
0
10
105.01636333262765
20
-19.005192934254008
30
0
10
105.0352995524881
20
-18.970840752708455
30
0
10
105.06478150920424
20
-18.898429733693675
30
0
10
105.07522579083
20
-18.860620081739924
30
0
10
105.08115920053699
20
-18.821981629249013
30
0
0
SPLINE
5
116
100
AcDbEntity
8
0
100
AcDbSpline
70
4
71
2
72
6
73
3
74
0
42
0.000000001
43
0.0000000001
44
0.0000000001
40
-9.1063646541411227
40
-9.1063646541411227
40
-9.1063646541411227
40
-6.7915680354262191
40
-6.7915680354262191
40
-6.7915680354262191
41
1.0077791396502978
41
1.5132020108577815
41
1.7611698244790097
10
104.47862221676901
20
-19.234213623636919
30
0
10
82.077766744091477
20
-14.26275447188779
30
0
10
72.48693574503865
20
-12.867066208783912
30
0
0
SPLINE
5
117
100
AcDbEntity
8
0
100
AcDbSpline
70
0
71
3
72
20
73
16
74
0
42
0.000000001
43
0.0000000001
44
0.0000000001
40
0
40
0
40
0
40
0
40
0.019532223669346465
40
0.019532223669346465
40
0.039064447338693797
40
0.039064447338693797
40
0.058596671008040072
40
0.058596671008040072
40
0.078128894677385846
40
0.078128894677385846
40
0.097661118346732481
40
0.097661118346732481
40
0.11610866132513994
40
0.11610866132513994
40
0.13455620430354745
40
0.13455620430354745
40
0.13455620430354745
40
0.13455620430354745
10
72.404430428403373
20
-11.896749569618416
30
-1.7763568394002505e-14
10
72.342509599741817
20
-11.916868866457621
30
-1.7763568394002505e-14
10
72.285110514011052
20
-11.948890326605268
30
-1.7763568394002505e-14
10
72.185817473252087
20
-12.033132789571328
30
-1.7763568394002505e-14
10
72.144872813812441
20
-12.084548388528129
30
-1.7763568394002505e-14
10
72.084996521021452
20
-12.200180261605384
30
-1.7763568394002505e-14
10
72.066637337664289
20
-12.263291031995022
30
-1.7763568394002505e-14
10
72.055143663786339
20
-12.392997608430198
30
-1.7763568394002505e-14
10
72.062119059052364
20
-12.458353348909503
30
-1.7763568394002505e-14
10
72.100729065827792
20
-12.582712377076144
30
-1.7763568394002505e-14
10
72.131994544628355
20
-12.640526724673295
30
-1.7763568394002505e-14
10
72.212624040090802
20
-12.738129222145337
30
-1.7763568394002505e-14
10
72.260199036878305
20
-12.777907858188124
30
-1.7763568394002505e-14
10
72.367386394318217
20
-12.838205794785866
30
-1.7763568394002505e-14
10
72.42608487887469
20
-12.858210996997494
30
-1.7763568394002505e-14
10
72.486935745034927
20
-12.867066208783415
30
-1.7763568394002505e-14
0
LINE
5
118
100
AcDbEntity
8
0
100
AcDbLine
10
67.87004749901547
20
-6.069761334161953
30
-1.7763568394002505e-14
11
104.36339797423517
21
44.159026477348569
31
-1.7763568394002505e-14
0
SPLINE
5
119
100
AcDbEntity
8
0
100
AcDbSpline
70
0
71
3
72
20
73
16
74
0
42
0.000000001
43
0.0000000001
44
0.0000000001
40
0
40
0
40
0
40
0
40
0.019532223669348692
40
0.019532223669348692
40
0.039064447338693492
40
0.039064447338693492
40
0.058596671008041334
40
0.058596671008041334
40
0.078128894677387054
40
0.078128894677387054
40
0.097661118346732995
40
0.097661118346732995
40
0.10803230577262007
40
0.10803230577262007
40
0.11840349319851172
40
0.11840349319851172
40
0.11840349319851172
40
0.11840349319851172
10
105.26216386445314
20
43.940695941133114
30
0
10
105.25232456017677
20
44.005055580805781
30
0
10
105.23000845623854
20
44.066878072325707
30
0
10
105.16293486218659
20
44.178489153723142
30
0
10
105.11881863218997
20
44.227210680829771
30
0
10
105.01439364685714
20
44.305000930527179
30
0
10
104.95508325129671
20
44.33332593593191
30
0
10
104.82894346302695
20
44.365647048614093
30
0
10
104.76332003544501
20
44.369334148437929
30
0
10
104.63435360531099
20
44.351346363465005
30
0
10
104.5722435921231
20
44.329843451696703
30
0
10
104.48614010815619
20
44.279624918207872
30
0
10
104.4581641481509
20
44.259157735338803
30
0
10
104.40688413952243
20
44.212780228955793
30
0
10
104.38371807762751
20
44.186994700279868
30
0
10
104.3633979742352
20
44.159026477348547
30
0
0
SPLINE
5
120
100
AcDbEntity
8
0
100
AcDbSpline
70
4
71
2
72
6
73
3
74
0
42
0.000000001
43
0.0000000001
44
0.0000000001
40
0.05979661275867084
40
0.05979661275867084
40
0.05979661275867084
40
4.998894152621153
40
4.998894152621153
40
4.998894152621153
41
1.0362213042052171
41
2.5183331049378119
41
1.7212335063570641
10
105.26216386445316
20
43.940695941132901
30
1.7763568394002505e-14
10
109.52183957106611
20
16.077832277174654
30
0
10
108.14265977143711
20
3.1807185843740768
30
0
0
SPLINE
5
121
100
AcDbEntity
8
0
100
AcDbSpline
70
0
71
3
72
12
73
8
74
0
42
0.000000001
43
0.0000000001
44
0.0000000001
40
0
40
0
40
0
40
0
40
0.019532223669347176
40
0.019532223669347176
40
0.039064447338694436
40
0.039064447338694436
40
0.057680998754361543
40
0.057680998754361543
40
0.057680998754361543
40
0.057680998754361543
10
107.80000286556985
20
2.7583557473702989
30
0
10
107.86192369423139
20
2.7784750442095039
30
0
10
107.91932277996216
20
2.8104965043571504
30
0
10
108.01861582072112
20
2.8947389673232102
30
0
10
108.05956048016077
20
2.9461545662800113
30
0
10
108.11803327018397
20
3.0590760234924339
30
0
10
108.13606139279629
20
3.1190152157907711
30
0
10
108.14265977143754
20
3.180718584377896
30
0
0
LINE
5
122
100
AcDbEntity
8
0
100
AcDbLine
10
107.80000286556985
20
2.7583557473702989
30
0
11
70.306953363358261
21
-9.4238745077335686
31
0
0
ARC
5
123
100
AcDbEntity
8
0
100
AcDbCircle
10
70.152444866170796
20
-8.9483462495859847
30
-1.7763568394002505e-14
40
0.49999999999999944
210
0
220
0
230
1
100
AcDbArc
50
208.01541016825058
51
287.99999999999875
0
ARC
5
124
100
AcDbEntity
8
0
100
AcDbCircle
10
60.000000000000007
20
-14.35000000000006
30
-1.7763568394002505e-14
40
10.999999999999998
210
-1.157922137837533e-32
220
2.1763225128624718e-32
230
1
100
AcDbArc
50
28.015410168250682
51
43.98458983174924
0
ARC
5
125
100
AcDbEntity
8
0
100
AcDbCircle
10
68.274555996202935
20
-6.3636539603081879
30
-1.7763568394002505e-14
40
0.49999999999999434
210
-2.8980050387437731e-32
220
-3.9887617407612578e-32
230
1
100
AcDbArc
50
143.99999999999952
51
223.98458983174916
0
SPLINE
5
126
100
AcDbEntity
8
0
100
AcDbSpline
70
4
71
2
72
6
73
3
74
0
42
0.000000001
43
0.0000000001
44
0.0000000001
40
-2.3325757600211219
40
-2.3325757600211219
40
-2.3325757600211219
40
-0.017779141306209667
40
-0.017779141306209667
40
-0.017779141306209667
41
1.7611698244790124
41
1.5132020108577846
41
1.0077791396502991
10
47.513064254961492
20
-12.867066208783895
30
1.7763568394002505e-14
10
37.922233255908708
20
-14.262754471887737
30
0
10
15.521377783231134
20
-19.234213623636908
30
0
0
SPLINE
5
127
100
AcDbEntity
8
0
100
AcDbSpline
70
0
71
3
72
16
73
12
74
0
42
0.000000001
43
0.0000000001
44
0.0000000001
40
0
40
0
40
0
40
0
40
0.019532223669346521
40
0.019532223669346521
40
0.039064447338693201
40
0.039064447338693201
40
0.058596671008038795
40
0.058596671008038795
40
0.070324082595763324
40
0.070324082595763324
40
0.082051494183488241
40
0.082051494183488241
40
0.082051494183488241
40
0.082051494183488241
10
14.918840799463043
20
-18.821981629248995
30
0
10
14.928723004470694
20
-18.886334695622121
30
0
10
14.95108031507433
20
-18.948142297220038
30
0
10
15.018228295525862
20
-19.059708641746646
30
0
10
15.062376994082152
20
-19.10840074961332
30
0
10
15.16685381213845
20
-19.186121371063368
30
0
10
15.226183076313575
20
-19.214406833144654
30
0
10
15.327138207496397
20
-19.240203114166977
30
0
10
15.366017301700827
20
-19.24540588586915
30
0
10
15.444190177286218
20
-19.24664804901639
30
0
10
15.483214945075513
20
-19.242683165848668
30
0
10
15.521377783234563
20
-19.234213623636144
30
0
0
SPLINE
5
128
100
AcDbEntity
8
0
100
AcDbSpline
70
4
71
2
72
6
73
3
74
0
42
0.000000001
43
0.0000000001
44
0.0000000001
40
0.017944016787100673
40
0.017944016787100673
40
0.017944016787100673
40
1.0488370789726782
40
1.0488370789726782
40
1.0488370789726782
41
1.0109396067028267
41
1.324318486366536
41
1.538404822435514
10
14.918840799463002
20
-18.8219816292488
30
0
10
13.163290271343548
20
-7.3898104113912346
30
0
10
12.375179725533139
20
-1.2030223077426103
30
0
0
SPLINE
5
129
100
AcDbEntity
8
0
100
AcDbSpline
70
0
71
3
72
18
73
14
74
0
42
0.000000001
43
0.0000000001
44
0.0000000001
40
0
40
0
40
0
40
0
40
0.019532223669346104
40
0.019532223669346104
40
0.039064447338692999
40
0.039064447338692999
40
0.058596671008039447
40
0.058596671008039447
40
0.078128894677385055
40
0.078128894677385055
40
0.08949071099041378
40
0.08949071099041378
40
0.10085252730344296
40
0.10085252730344296
40
0.10085252730344296
40
0.10085252730344296
10
13.025680135414511
20
-0.66431159520896055
30
0
10
12.963759306752959
20
-0.64419229836975556
30
0
10
12.898500728903532
20
-0.63635986772629816
30
0
10
12.768654494158119
20
-0.64615046690045796
30
0
10
12.705308238037961
20
-0.66367989325370014
30
0
10
12.588900589920103
20
-0.72203364180010932
30
0
10
12.536952118485479
20
-0.76230007035194769
30
0
10
12.45141392823647
20
-0.86047908297010134
30
0
10
12.418642001142778
20
-0.91745302216408187
30
0
10
12.385536905343029
20
-1.0149669210777144
30
0
10
12.377475880965012
20
-1.052096806562449
30
0
10
12.369892152323859
20
-1.1274616462214868
30
0
10
12.370393942592507
20
-1.1654531810241084
30
0
10
12.375179725530614
20
-1.2030223077228039
30
0
0
LINE
5
130
100
AcDbEntity
8
0
100
AcDbLine
10
13.025680135414511
20
-0.66431159520896055
30
0
11
47.595569571596592
21
-11.896749569618398
31
0
0
SPLINE
5
131
100
AcDbEntity
8
0
100
AcDbSpline
70
0
71
3
72
20
73
16
74
0
42
0.000000001
43
0.0000000001
44
0.0000000001
40
0
40
0
40
0
40
0
40
0.019532223669346496
40
0.019532223669346496
40
0.039064447338693707
40
0.039064447338693707
40
0.058596671008039183
40
0.058596671008039183
40
0.078128894677387206
40
0.078128894677387206
40
0.097661118346733342
40
0.097661118346733342
40
0.11610866132514147
40
0.11610866132514147
40
0.13455620430354948
40
0.13455620430354948
40
0.13455620430354948
40
0.13455620430354948
10
47.51306425496503
20
-12.867066208783397
30
0
10
47.577493037145203
20
-12.857690327266573
30
0
10
47.639474526902504
20
-12.835819710444449
30
0
10
47.751565417166404
20
-12.769551069070141
30
0
10
47.80060316766783
20
-12.725786608848699
30
0
10
47.879142903544654
20
-12.621924149807191
30
0
10
47.907894006237612
20
-12.562819132704989
30
0
10
47.941122054415956
20
-12.436915211701669
30
0
10
47.945281321650064
20
-12.371320017908298
30
0
10
47.92822211704668
20
-12.242227477271543
30
0
10
47.907166740503186
20
-12.179964325477519
30
0
10
47.844173770604286
20
-12.070149714452276
30
0
10
47.803997907374168
20
-12.022909686737739
30
0
10
47.708529922592284
20
-11.945380114092307
30
0
10
47.654051758127423
20
-11.915751583901033
30
0
10
47.595569571596592
20
-11.896749569618398
30
0
0
LINE
5
132
100
AcDbEntity
8
0
100
AcDbLine
10
58.500000000000014
20
48.885189045680768
30
-1.7763568394002505e-14
11
58.500000000000007
21
-3.0252483470939318
31
-1.7763568394002505e-14
0
ARC
5
133
100
AcDbEntity
8
0
100
AcDbCircle
10
58.000000000000014
20
-3.0252483470939353
30
0
40
0.49999999999999961
210
2.8563520790099828e-32
220
-1.9988945733349475e-32
230
1
100
AcDbArc
50
-79.984589831748252
51
0
0
ARC
5
134
100
AcDbEntity
8
0
100
AcDbCircle
10
60.000000000000007
20
-14.35000000000006
30
-1.7763568394002505e-14
40
11
210
2.8084693113047271e-16
220
-1.5902608737667262e-15
230
1
100
AcDbArc
50
100.01541016825061
51
115.98458983174913
0
ARC
5
135
100
AcDbEntity
8
0
100
AcDbCircle
10
54.961511981296894
20
-4.0125129511382731
30
0
40
0.50000000000000189
210
2.8980050387436363e-32
220
-3.9887617407613569e-32
230
1
100
AcDbArc
50
215.99999999999844
51
295.98458983175067
0
LINE
5
136
100
AcDbEntity
8
0
100
AcDbLine
10
54.557003484109416
20
-4.3064055772844965
30
1.3590021219866126e-46
11
18.524986281921603
21
45.287411457913137
31
0
0
SPLINE
5
137
100
AcDbEntity
8
0
100
AcDbSpline
70
0
71
3
72
18
73
14
74
0
42
0.000000001
43
0.0000000001
44
0.0000000001
40
0
40
0
40
0
40
0
40
0.019532223669345955
40
0.019532223669345955
40
0.039064447338691917
40
0.039064447338691917
40
0.058596671008037303
40
0.058596671008037303
40
0.078128894677383695
40
0.078128894677383695
40
0.091447670013329097
40
0.091447670013329097
40
0.10476644534927261
40
0.10476644534927261
40
0.10476644534927261
40
0.10476644534927261
10
18.874867383683259
20
46.078310973014624
30
-1.7763568394002505e-14
10
18.810149718881391
20
46.071197676308415
30
-1.7763568394002505e-14
10
18.747440175251803
20
46.051511587553087
30
-1.7763568394002505e-14
10
18.633096794680814
20
45.989209967755968
30
-1.7763568394002505e-14
10
18.582556142779627
20
45.94719007415641
30
-1.7763568394002505e-14
10
18.500426479237319
20
45.846142467177451
30
-1.7763568394002505e-14
10
18.469622671943789
20
45.788080823995934
30
-1.7763568394002505e-14
10
18.432004814202195
20
45.663418089834181
30
-1.7763568394002505e-14
10
18.425550410977458
20
45.598008842538974
30
-1.7763568394002505e-14
10
18.436084779950527
20
45.489013400637539
30
-1.7763568394002505e-14
10
18.446222333350779
20
45.445588422889038
30
-1.7763568394002505e-14
10
18.477695316329829
20
45.362561671737268
30
-1.7763568394002505e-14
10
18.498891016184722
20
45.323328509883268
30
-1.7763568394002505e-14
10
18.524986281921603
20
45.287411457913137
30
-1.7763568394002505e-14
0
SPLINE
5
138
100
AcDbEntity
8
0
100
AcDbSpline
70
4
71
2
72
6
73
3
74
0
42
0.000000001
43
0.0000000001
44
0.0000000001
40
0.13888389567271334
40
0.13888389567271334
40
0.13888389567271334
40
4.1143219758569263
40
4.1143219758569263
40
4.1143219758569263
41
1.0605669976978804
41
1.9138687373659813
41
1.9921031149802588
10
18.874867383707702
20
46.078310973017324
30
-1.7763568394002505e-14
10
47.560573938999482
20
49.231235952303471
30
-1.7763568394002505e-14
10
57.992624558944868
20
49.385134645590654
30
-1.7763568394002505e-14
0
SPLINE
5
139
100
AcDbEntity
8
0
100
AcDbSpline
70
0
71
3
72
16
73
12
74
0
42
0.000000001
43
0.0000000001
44
0.0000000001
40
0
40
0
40
0
40
0
40
0.019532223669346538
40
0.019532223669346538
40
0.039064447338692562
40
0.039064447338692562
40
0.058596671008040571
40
0.058596671008040571
40
0.069038441398834735
40
0.069038441398834735
40
0.079480211789629732
40
0.079480211789629732
40
0.079480211789629732
40
0.079480211789629732
10
58.500000000000014
20
48.885189045680768
30
-1.7763568394002505e-14
10
58.500000000000014
20
48.950296457911918
30
-1.7763568394002505e-14
10
58.4872830746177
20
49.014781407795866
30
-1.7763568394002505e-14
10
58.437846968282756
20
49.135247053936965
30
-1.7763568394002505e-14
10
58.401600423451441
20
49.190076032958139
30
-1.7763568394002505e-14
10
58.310130769102486
20
49.282753985260896
30
-1.7763568394002505e-14
10
58.255782159335226
20
49.31971690680507
30
-1.7763568394002505e-14
10
58.163855077604083
20
49.358858724158154
30
-1.7763568394002505e-14
10
58.130494831108344
20
49.369113161446343
30
-1.7763568394002505e-14
10
58.06218747057563
20
49.382526123796708
30
-1.7763568394002505e-14
10
58.027426673348671
20
49.385648063338081
30
-1.7763568394002505e-14
10
57.992624558934367
20
49.385134645590497
30
-1.7763568394002505e-14
0
LINE
5
140
100
AcDbEntity
8
0
100
AcDbLine
10
49.69304663664176
20
-9.4238745077335686
30
0
11
12.199997134430198
21
2.7583557473703522
31
-4.9303806576313238e-31
0
SPLINE
5
141
100
AcDbEntity
8
0
100
AcDbSpline
70
0
71
3
72
12
73
8
74
0
42
0.000000001
43
0.0000000001
44
0.0000000001
40
0
40
0
40
0
40
0
40
0.019532223669346992
40
0.019532223669346992
40
0.039064447338692659
40
0.039064447338692659
40
0.057680998754360141
40
0.057680998754360141
40
0.057680998754360141
40
0.057680998754360141
10
11.857340228562494
20
3.1807185843779315
30
0
10
11.864263154543703
20
3.1159802786903654
30
0
10
11.8837647242459
20
3.0532131078773936
30
0
10
11.945729781328868
20
2.9386869876669728
30
0
10
11.987600848990379
20
2.8880229704002822
30
0
10
12.086043580983542
20
2.8075285532659287
30
0
10
12.140979159314149
20
2.7775318499173416
30
0
10
12.199997134430197
20
2.7583557473703522
30
0
0
SPLINE
5
142
100
AcDbEntity
8
0
100
AcDbSpline
70
4
71
2
72
6
73
3
74
0
42
0.000000001
43
0.0000000001
44
0.0000000001
40
1.5442320115300274
40
1.5442320115300274
40
1.5442320115300274
40
6.4833295513925187
40
6.4833295513925187
40
6.4833295513925187
41
1.7212335063570579
41
2.5183331049378164
41
1.0362213042052235
10
11.857340228562927
20
3.1807185843739347
30
0
10
10.478160428933903
20
16.077832277174583
30
0
10
14.737836135546818
20
43.940695941132617
30
-1.7763568394002505e-14
0
SPLINE
5
143
100
AcDbEntity
8
0
100
AcDbSpline
70
0
71
3
72
20
73
16
74
0
42
0.000000001
43
0.0000000001
44
0.0000000001
40
0
40
0
40
0
40
0
40
0.01953222366934616
40
0.01953222366934616
40
0.039064447338692576
40
0.039064447338692576
40
0.058596671008038934
40
0.058596671008038934
40
0.078128894677385166
40
0.078128894677385166
40
0.097661118346730913
40
0.097661118346730913
40
0.10803230577261977
40
0.10803230577261977
40
0.11840349319850821
40
0.11840349319850821
40
0.11840349319850821
40
0.11840349319850821
10
15.636602025764859
20
44.159026477348618
30
-1.7763568394002505e-14
10
15.59833284904046
20
44.211699480303395
30
-1.7763568394002505e-14
10
15.550141337753372
20
44.256394079446707
30
-1.7763568394002505e-14
10
15.439338757383057
20
44.324795020178755
30
-1.7763568394002505e-14
10
15.377787021360248
20
44.347847411492722
30
-1.7763568394002505e-14
10
15.249311782946112
20
44.369060936050921
30
-1.7763568394002505e-14
10
15.183616573858441
20
44.367019256438098
30
-1.7763568394002505e-14
10
15.056706548577331
20
44.337868853475229
30
-1.7763568394002505e-14
10
14.996705061396886
20
44.311038823865672
30
-1.7763568394002505e-14
10
14.890363745545409
20
44.235889472220279
30
-1.7763568394002505e-14
10
14.84504059781441
20
44.188288618945691
30
-1.7763568394002505e-14
10
14.791571894050817
20
44.10416484837608
30
-1.7763568394002505e-14
10
14.776103526032822
20
44.073144056902066
30
-1.7763568394002505e-14
10
14.751815197332421
20
44.008409294431026
30
-1.7763568394002505e-14
10
14.743060592859997
20
43.974869514864849
30
-1.7763568394002505e-14
10
14.737836135546905
20
43.940695941133185
30
-1.7763568394002505e-14
0
LINE
5
144
100
AcDbEntity
8
0
100
AcDbLine
10
15.636602025764859
20
44.159026477348618
30
-1.7763568394002505e-14
11
52.129952500984572
21
-6.0697613341619316
31
-1.7763568394002505e-14
0
ARC
5
145
100
AcDbEntity
8
0
100
AcDbCircle
10
51.725444003797101
20
-6.3636539603081701
30
0
40
0.49999999999999845
210
-6.1781947605139886e-34
220
3.4857581249310278e-32
230
1
100
AcDbArc
50
-43.984589831750277
51
36.000000000000327
0
ARC
5
146
100
AcDbEntity
8
0
100
AcDbCircle
10
60.000000000000007
20
-14.35000000000006
30
-1.7763568394002505e-14
40
10.999999999999995
210
1.1619418290004278e-15
220
-1.1214703880967429e-15
230
1
100
AcDbArc
50
136.0154101682507
51
151.98458983174913
0
ARC
5
147
100
AcDbEntity
8
0
100
AcDbCircle
10
49.847555133829232
20
-8.9483462495859669
30
0
40
0.50000000000002354
210
-2.3445353261279395e-32
220
7.6178570597276607e-33
230
1
100
AcDbArc
50
252.00000000000114
51
331.9845898317509
0
CIRCLE
5
148
100
AcDbEntity
8
0
100
AcDbCircle
10
11.100000000000014
20
-106.35000000000002
30
0
40
2.0999999999999996
210
-2.5407181807811967e-33
220
3.1114823876291789e-49
230
1
0
CIRCLE
5
149
100
AcDbEntity
8
0
100
AcDbCircle
10
108.89999999999999
20
-106.35000000000004
30
0
40
2.1000000000000085
210
-2.5407181807811936e-33
220
2.4651903288156619e-32
230
1
0
LWPOLYLINE
5
150
100
AcDbEntity
8
0
100
AcDbPolyline
90
4
70
1
43
0.0
10
120.00000000000001
20
60.64999999999992
10
120.00000000000001
20
-114.35000000000008
10
2.4033360571416075e-15
20
-114.35000000000005
10
3.5527136788005009e-14
20
60.649999999999942
0
ENDSEC
0
SECTION
2
OBJECTS
0
DICTIONARY
5
C
100
AcDbDictionary
3
ACAD_GROUP
350
D
3
ACAD_MLINESTYLE
350
17
0
DICTIONARY
5
D
100
AcDbDictionary
0
DICTIONARY
5
1A
330
C
100
AcDbDictionary
0
DICTIONARY
5
17
100
AcDbDictionary
0
ENDSEC
0
EOF
