0
SECTION
2
HEADER
9
$INSUNITS
70
4
9
$ACADVER
1
AC1014
9
$HANDSEED
5
FFFF
0
ENDSEC
0
SECTION
2
TABLES
0
TABLE
2
VPORT
5
8
100
AcDbSymbolTable
0
ENDTAB
0
TABLE
2
LTYPE
5
5
100
AcDbSymbolTable
0
LTYPE
5
14
100
AcDbSymbolTableRecord
100
AcDbLinetypeTableRecord
2
BYBLOCK
70
0
0
LTYPE
5
15
100
AcDbSymbolTableRecord
100
AcDbLinetypeTableRecord
2
BYLAYER
70
0
0
ENDTAB
0
TABLE
2
LAYER
5
2
100
AcDbSymbolTable
70
2
0
LAYER
5
50
100
AcDbSymbolTableRecord
100
AcDbLayerTableRecord
2
0
70
0
6
CONTINUOUS
0
ENDTAB
0
TABLE
2
STYLE
5
3
100
AcDbSymbolTable
70
1
0
STYLE
5
11
100
AcDbSymbolTableRecord
100
AcDbTextStyleTableRecord
2
STANDARD
70
0
0
ENDTAB
0
TABLE
2
VIEW
5
6
100
AcDbSymbolTable
70
0
0
ENDTAB
0
TABLE
2
UCS
5
7
100
AcDbSymbolTable
70
0
0
ENDTAB
0
TABLE
2
APPID
5
9
100
AcDbSymbolTable
70
2
0
APPID
5
12
100
AcDbSymbolTableRecord
100
AcDbRegAppTableRecord
2
ACAD
70
0
0
ENDTAB
0
TABLE
2
DIMSTYLE
5
A
100
AcDbSymbolTable
70
1
0
ENDTAB
0
TABLE
2
BLOCK_RECORD
5
1
100
AcDbSymbolTable
70
1
0
BLOCK_RECORD
5
1F
100
AcDbSymbolTableRecord
100
AcDbBlockTableRecord
2
*MODEL_SPACE
0
BLOCK_RECORD
5
1B
100
AcDbSymbolTableRecord
100
AcDbBlockTableRecord
2
*PAPER_SPACE
0
ENDTAB
0
ENDSEC
0
SECTION
2
BLOCKS
0
BLOCK
5
20
100
AcDbEntity
100
AcDbBlockBegin
2
*MODEL_SPACE
0
ENDBLK
5
21
100
AcDbEntity
100
AcDbBlockEnd
0
BLOCK
5
1C
100
AcDbEntity
100
AcDbBlockBegin
2
*PAPER_SPACE
0
ENDBLK
5
1D
100
AcDbEntity
100
AcDbBlockEnd
0
ENDSEC
0
SECTION
2
ENTITIES
0
LINE
5
100
100
AcDbEntity
8
0
100
AcDbLine
10
5.6202203864454887
20
4.8979572822289761
30
0
11
5.6202203864454852
21
-25.102042717771024
31
0
0
LINE
5
101
100
AcDbEntity
8
0
100
AcDbLine
10
5.6202203864454852
20
-25.102042717771024
30
0
11
60.756163572176064
21
-25.102042717771024
31
-3.3290944054407835e-46
0
SPLINE
5
102
100
AcDbEntity
8
0
100
AcDbSpline
70
0
71
3
72
10
73
6
74
0
42
0.000000001
43
0.0000000001
44
0.0000000001
40
0
40
0
40
0
40
0
40
0.090436145809706978
40
0.090436145809706978
40
0.1808722916194116
40
0.1808722916194116
40
0.1808722916194116
40
0.1808722916194116
10
62.554737658545967
20
-25.265115796428223
30
0
10
62.258199739419958
20
-25.210897093653383
30
0
10
61.959361755266904
20
-25.170114982561852
30
0
10
61.358917097504893
20
-25.115673878552553
30
0
10
61.057617391541761
20
-25.102042717771024
30
0
10
60.756163572176057
20
-25.102042717771024
30
0
0
LINE
5
103
100
AcDbEntity
8
0
100
AcDbLine
10
62.584092815357558
20
-25.270437824349624
30
0
11
62.554737658545967
21
-25.265115796428223
31
0
0
SPLINE
5
104
100
AcDbEntity
8
0
100
AcDbSpline
70
4
71
3
72
8
73
4
74
0
42
0.000000001
43
0.0000000001
44
0.0000000001
40
0.6007915241631393
40
0.6007915241631393
40
0.6007915241631393
40
0.6007915241631393
40
1
40
1
40
1
40
1
41
1
41
1
41
1
41
1
10
62.584092815357558
20
-25.270437824349553
30
0
10
62.6368922509483
20
-25.279928923528065
30
0
10
62.690787979938001
20
-25.292015977314794
30
0
10
62.737262499999964
20
-25.305958333333404
30
0
0
SPLINE
5
105
100
AcDbEntity
8
0
100
AcDbSpline
70
4
71
3
72
8
73
4
74
0
42
0.000000001
43
0.0000000001
44
0.0000000001
40
0
40
0
40
0
40
0
40
1
40
1
40
1
40
1
41
1
41
1
41
1
41
1
10
62.737262499999964
20
-25.305958333333404
30
0
10
62.853679166666659
20
-25.33506250000006
30
0
10
63.552179166666683
20
-25.468941666666719
30
0
10
64.285604166666644
20
-25.602820833333379
30
0
0
SPLINE
5
106
100
AcDbEntity
8
0
100
AcDbSpline
70
4
71
3
72
8
73
4
74
0
42
0.000000001
43
0.0000000001
44
0.0000000001
40
0
40
0
40
0
40
0
40
1
40
1
40
1
40
1
41
1
41
1
41
1
41
1
10
64.285604166666644
20
-25.602820833333379
30
0
10
65.024850000000015
20
-25.730879166666728
30
0
10
65.950362500000011
20
-25.899683333333424
30
0
10
66.35199999999999
20
-25.981175000000047
30
0
0
SPLINE
5
107
100
AcDbEntity
8
0
100
AcDbSpline
70
4
71
3
72
8
73
4
74
0
42
0.000000001
43
0.0000000001
44
0.0000000001
40
0
40
0
40
0
40
0
40
1
40
1
40
1
40
1
41
1
41
1
41
1
41
1
10
66.35199999999999
20
-25.981175000000047
30
0
10
66.753637499999968
20
-26.056845833333394
30
0
10
67.236766666666639
20
-26.149979166666743
30
0
10
67.428854166666682
20
-26.179083333333399
30
0
0
SPLINE
5
108
100
AcDbEntity
8
0
100
AcDbSpline
70
4
71
3
72
8
73
4
74
0
42
0.000000001
43
0.0000000001
44
0.0000000001
40
0
40
0
40
0
40
0
40
1
40
1
40
1
40
1
41
1
41
1
41
1
41
1
10
67.428854166666682
20
-26.179083333333399
30
0
10
67.981833333333356
20
-26.278037500000092
30
0
10
68.395112500000025
20
-26.353708333333405
30
0
10
68.680333333333309
20
-26.411916666666752
30
0
0
SPLINE
5
109
100
AcDbEntity
8
0
100
AcDbSpline
70
4
71
3
72
8
73
4
74
0
42
0.000000001
43
0.0000000001
44
0.0000000001
40
0
40
0
40
0
40
0
40
1
40
1
40
1
40
1
41
1
41
1
41
1
41
1
10
68.680333333333309
20
-26.411916666666752
30
0
10
68.825854166666659
20
-26.441020833333408
30
0
10
69.30898333333333
20
-26.53415416666672
30
0
10
69.757187500000001
20
-26.615645833333414
30
0
0
SPLINE
5
110
100
AcDbEntity
8
0
100
AcDbSpline
70
4
71
3
72
8
73
4
74
0
42
0.000000001
43
0.0000000001
44
0.0000000001
40
0
40
0
40
0
40
0
40
1
40
1
40
1
40
1
41
1
41
1
41
1
41
1
10
69.757187500000001
20
-26.615645833333414
30
0
10
70.205391666666671
20
-26.697137500000071
30
0
10
70.711804166666653
20
-26.79027083333342
30
0
10
70.880608333333313
20
-26.819375000000075
30
0
0
SPLINE
5
111
100
AcDbEntity
8
0
100
AcDbSpline
70
4
71
3
72
8
73
4
74
0
42
0.000000001
43
0.0000000001
44
0.0000000001
40
0
40
0
40
0
40
0
40
1
40
1
40
1
40
1
41
1
41
1
41
1
41
1
10
70.880608333333313
20
-26.819375000000075
30
0
10
71.0435916666667
20
-26.854300000000077
30
0
10
71.328812499999984
20
-26.900866666666733
30
0
10
71.50343749999999
20
-26.935791666666734
30
0
0
SPLINE
5
112
100
AcDbEntity
8
0
100
AcDbSpline
70
4
71
3
72
8
73
4
74
0
42
0.000000001
43
0.0000000001
44
0.0000000001
40
0
40
0
40
0
40
0
40
1
40
1
40
1
40
1
41
1
41
1
41
1
41
1
10
71.50343749999999
20
-26.935791666666734
30
0
10
71.864329166666693
20
-26.999820833333391
30
0
10
72.114624999999975
20
-27.046387500000083
30
0
10
73.191479166666667
20
-27.255937500000073
30
0
0
SPLINE
5
113
100
AcDbEntity
8
0
100
AcDbSpline
70
4
71
3
72
8
73
4
74
0
42
0.000000001
43
0.0000000001
44
0.0000000001
40
0
40
0
40
0
40
0
40
1
40
1
40
1
40
1
41
1
41
1
41
1
41
1
10
73.191479166666667
20
-27.255937500000073
30
0
10
73.610579166666682
20
-27.337429166666766
30
0
10
74.105350000000001
20
-27.430562500000079
30
0
10
74.297437500000015
20
-27.46548750000008
30
0
0
SPLINE
5
114
100
AcDbEntity
8
0
100
AcDbSpline
70
4
71
3
72
8
73
4
74
0
42
0.000000001
43
0.0000000001
44
0.0000000001
40
0
40
0
40
0
40
0
40
1
40
1
40
1
40
1
41
1
41
1
41
1
41
1
10
74.297437500000015
20
-27.46548750000008
30
0
10
74.489525000000015
20
-27.500412500000081
30
0
10
74.763104166666679
20
-27.546979166666773
30
0
10
74.908625000000001
20
-27.576083333333429
30
0
0
SPLINE
5
115
100
AcDbEntity
8
0
100
AcDbSpline
70
4
71
3
72
8
73
4
74
0
42
0.000000001
43
0.0000000001
44
0.0000000001
40
0
40
0
40
0
40
0
40
1
40
1
40
1
40
1
41
1
41
1
41
1
41
1
10
74.908625000000001
20
-27.576083333333429
30
0
10
75.054145833333351
20
-27.605187500000085
30
0
10
75.327725000000015
20
-27.651754166666741
30
0
10
75.519812499999986
20
-27.686679166666778
30
0
0
SPLINE
5
116
100
AcDbEntity
8
0
100
AcDbSpline
70
4
71
3
72
8
73
4
74
0
42
0.000000001
43
0.0000000001
44
0.0000000001
40
0
40
0
40
0
40
0
40
1
40
1
40
1
40
1
41
1
41
1
41
1
41
1
10
75.519812499999986
20
-27.686679166666778
30
0
10
75.711899999999986
20
-27.721604166666744
30
0
10
76.066970833333343
20
-27.785633333333436
30
0
10
76.305625000000006
20
-27.832200000000093
30
0
0
SPLINE
5
117
100
AcDbEntity
8
0
100
AcDbSpline
70
4
71
3
72
8
73
4
74
0
42
0.000000001
43
0.0000000001
44
0.0000000001
40
0
40
0
40
0
40
0
40
1
40
1
40
1
40
1
41
1
41
1
41
1
41
1
10
76.305625000000006
20
-27.832200000000093
30
0
10
77.091437499999998
20
-27.983541666666753
30
0
10
77.836504166666685
20
-28.094137500000102
30
0
10
78.342916666666667
20
-28.123241666666758
30
0
0
SPLINE
5
118
100
AcDbEntity
8
0
100
AcDbSpline
70
4
71
3
72
8
73
4
74
0
42
0.000000001
43
0.0000000001
44
0.0000000001
40
0
40
0
40
0
40
0
40
1
40
1
40
1
40
1
41
1
41
1
41
1
41
1
10
78.342916666666667
20
-28.123241666666758
30
0
10
78.616495833333332
20
-28.140704166666758
30
0
10
79.152012499999998
20
-28.181450000000105
30
0
10
79.536187500000011
20
-28.21637500000007
30
0
0
SPLINE
5
119
100
AcDbEntity
8
0
100
AcDbSpline
70
4
71
3
72
8
73
4
74
0
42
0.000000001
43
0.0000000001
44
0.0000000001
40
0
40
0
40
0
40
0
40
1
40
1
40
1
40
1
41
1
41
1
41
1
41
1
10
79.536187500000011
20
-28.21637500000007
30
0
10
84.582850000000022
20
-28.647116666666776
30
0
10
88.71564166666667
20
-28.821741666666782
30
0
10
93.680812500000016
20
-28.821741666666782
30
-3.5527136788005009e-14
0
SPLINE
5
120
100
AcDbEntity
8
0
100
AcDbSpline
70
4
71
3
72
8
73
4
74
0
42
0.000000001
43
0.0000000001
44
0.0000000001
40
0
40
0
40
0
40
0
40
1
40
1
40
1
40
1
41
1
41
1
41
1
41
1
10
93.680812500000016
20
-28.821741666666782
30
-3.5527136788005009e-14
10
97.231520833333335
20
-28.821741666666782
30
-3.5527136788005009e-14
10
99.309558333333342
20
-28.728608333333433
30
-3.5527136788005009e-14
10
100.7822291666667
20
-28.513237500000081
30
-3.5527136788005009e-14
0
SPLINE
5
121
100
AcDbEntity
8
0
100
AcDbSpline
70
4
71
3
72
8
73
4
74
0
42
0.000000001
43
0.0000000001
44
0.0000000001
40
0
40
0
40
0
40
0
40
1
40
1
40
1
40
1
41
1
41
1
41
1
41
1
10
100.7822291666667
20
-28.513237500000081
30
-3.5527136788005009e-14
10
101.00924166666667
20
-28.478312500000079
30
-3.5527136788005009e-14
10
101.34684999999999
20
-28.425925000000078
30
-3.5527136788005009e-14
10
101.5389375
20
-28.396820833333422
30
-3.5527136788005009e-14
0
SPLINE
5
122
100
AcDbEntity
8
0
100
AcDbSpline
70
4
71
3
72
8
73
4
74
0
42
0.000000001
43
0.0000000001
44
0.0000000001
40
0
40
0
40
0
40
0
40
1
40
1
40
1
40
1
41
1
41
1
41
1
41
1
10
101.5389375
20
-28.396820833333422
30
-3.5527136788005009e-14
10
101.731025
20
-28.367716666666766
30
-3.5527136788005009e-14
10
102.01042500000001
20
-28.315329166666764
30
-3.5527136788005009e-14
10
102.15012500000002
20
-28.274583333333418
30
-3.5527136788005009e-14
0
SPLINE
5
123
100
AcDbEntity
8
0
100
AcDbSpline
70
4
71
3
72
8
73
4
74
0
42
0.000000001
43
0.0000000001
44
0.0000000001
40
0
40
0
40
0
40
0
40
1
40
1
40
1
40
1
41
1
41
1
41
1
41
1
10
102.15012500000002
20
-28.274583333333418
30
-3.5527136788005009e-14
10
102.29564583333334
20
-28.239658333333416
30
-3.5527136788005009e-14
10
102.51683749999999
20
-28.181450000000105
30
-3.5527136788005009e-14
10
102.64489583333335
20
-28.152345833333413
30
-3.5527136788005009e-14
0
SPLINE
5
124
100
AcDbEntity
8
0
100
AcDbSpline
70
4
71
3
72
8
73
4
74
0
42
0.000000001
43
0.0000000001
44
0.0000000001
40
0
40
0
40
0
40
0
40
1
40
1
40
1
40
1
41
1
41
1
41
1
41
1
10
102.64489583333335
20
-28.152345833333413
30
-3.5527136788005009e-14
10
103.21533750000002
20
-28.006825000000099
30
-3.5527136788005009e-14
10
103.34921666666668
20
-27.960258333333407
30
-3.5527136788005009e-14
10
103.80906250000001
20
-27.74488750000009
30
-3.5527136788005009e-14
0
SPLINE
5
125
100
AcDbEntity
8
0
100
AcDbSpline
70
4
71
3
72
8
73
4
74
0
42
0.000000001
43
0.0000000001
44
0.0000000001
40
0
40
0
40
0
40
0
40
1
40
1
40
1
40
1
41
1
41
1
41
1
41
1
10
103.80906250000001
20
-27.74488750000009
30
-3.5527136788005009e-14
10
104.51920416666668
20
-27.401458333333423
30
-3.5527136788005009e-14
10
105.31665833333336
20
-26.86012083333344
30
-3.5527136788005009e-14
10
106.42843749999999
20
-25.952070833333408
30
-3.5527136788005009e-14
0
SPLINE
5
126
100
AcDbEntity
8
0
100
AcDbSpline
70
4
71
3
72
8
73
4
74
0
42
0.000000001
43
0.0000000001
44
0.0000000001
40
0
40
0
40
0
40
0
40
0.43290448291414224
40
0.43290448291414224
40
0.43290448291414224
40
0.43290448291414224
41
1
41
1
41
1
41
1
10
106.42843749999999
20
-25.952070833333408
30
-3.5527136788005009e-14
10
106.61742736332221
20
-25.798359077831353
30
-3.5527136788005009e-14
10
106.95695601531025
20
-25.465746153190199
30
-3.5527136788005009e-14
10
107.30676861400489
20
-25.102042717771013
30
-3.5527136788005009e-14
0
SPLINE
5
127
100
AcDbEntity
8
0
100
AcDbSpline
70
4
71
3
72
8
73
4
74
0
42
0.000000001
43
0.0000000001
44
0.0000000001
40
0.43290448291414474
40
0.43290448291414474
40
0.43290448291414474
40
0.43290448291414474
40
1
40
1
40
1
40
1
41
1
41
1
41
1
41
1
10
107.30676861400488
20
-25.102042717771006
30
-3.5527136788005009e-14
10
107.76501555846822
20
-24.625599077394437
30
-3.5527136788005009e-14
10
108.240910201592
20
-24.095802771833576
30
-3.5527136788005009e-14
10
108.41916250000003
20
-23.844929166666752
30
-3.5527136788005009e-14
0
SPLINE
5
128
100
AcDbEntity
8
0
100
AcDbSpline
70
4
71
3
72
8
73
4
74
0
42
0.000000001
43
0.0000000001
44
0.0000000001
40
0
40
0
40
0
40
0
40
1
40
1
40
1
40
1
41
1
41
1
41
1
41
1
10
108.41916250000003
20
-23.844929166666752
30
-3.5527136788005009e-14
10
109.25736250000001
20
-22.686583333333402
30
-3.5527136788005009e-14
10
109.26900416666668
20
-22.640016666666746
30
-3.5527136788005009e-14
10
109.27482500000002
20
-20.416458333333431
30
-3.5527136788005009e-14
0
SPLINE
5
129
100
AcDbEntity
8
0
100
AcDbSpline
70
4
71
3
72
8
73
4
74
0
42
0.000000001
43
0.0000000001
44
0.0000000001
40
0
40
0
40
0
40
0
40
1
40
1
40
1
40
1
41
1
41
1
41
1
41
1
10
109.27482500000002
20
-20.416458333333431
30
-3.5527136788005009e-14
10
109.28064583333332
20
-19.019458333333418
30
0
10
109.29810833333336
20
-18.594537500000094
30
0
10
109.36795833333336
20
-18.408270833333432
30
0
0
SPLINE
5
130
100
AcDbEntity
8
0
100
AcDbSpline
70
4
71
3
72
8
73
4
74
0
42
0.000000001
43
0.0000000001
44
0.0000000001
40
0
40
0
40
0
40
0
40
1
40
1
40
1
40
1
41
1
41
1
41
1
41
1
10
109.36795833333336
20
-18.408270833333432
30
0
10
109.53676250000002
20
-17.942604166666762
30
0
10
110.02571250000001
20
-17.337237500000086
30
0
10
111.18987916666667
20
-16.167250000000081
30
0
0
SPLINE
5
131
100
AcDbEntity
8
0
100
AcDbSpline
70
4
71
3
72
8
73
4
74
0
42
0.000000001
43
0.0000000001
44
0.0000000001
40
0
40
0
40
0
40
0
40
1
40
1
40
1
40
1
41
1
41
1
41
1
41
1
10
111.18987916666667
20
-16.167250000000081
30
0
10
112.59852083333334
20
-14.752787500000103
30
0
10
112.94777083333335
20
-14.327866666666779
30
0
10
113.27955833333336
20
-13.629366666666755
30
0
0
SPLINE
5
132
100
AcDbEntity
8
0
100
AcDbSpline
70
4
71
3
72
8
73
4
74
0
42
0.000000001
43
0.0000000001
44
0.0000000001
40
0
40
0
40
0
40
0
40
1
40
1
40
1
40
1
41
1
41
1
41
1
41
1
10
113.27955833333336
20
-13.629366666666755
30
0
10
113.50657083333337
20
-13.146237500000083
30
0
10
113.52403333333336
20
-13.082208333333426
30
0
10
113.52403333333336
20
-12.616541666666755
30
0
0
SPLINE
5
133
100
AcDbEntity
8
0
100
AcDbSpline
70
4
71
3
72
8
73
4
74
0
42
0.000000001
43
0.0000000001
44
0.0000000001
40
0
40
0
40
0
40
0
40
1
40
1
40
1
40
1
41
1
41
1
41
1
41
1
10
113.52403333333336
20
-12.616541666666755
30
0
10
113.52403333333336
20
-12.092666666666773
30
0
10
113.40179583333332
20
-11.586254166666755
30
0
10
113.10493333333335
20
-10.870291666666766
30
0
0
SPLINE
5
134
100
AcDbEntity
8
0
100
AcDbSpline
70
4
71
3
72
8
73
4
74
0
42
0.000000001
43
0.0000000001
44
0.0000000001
40
0
40
0
40
0
40
0
40
1
40
1
40
1
40
1
41
1
41
1
41
1
41
1
10
113.10493333333335
20
-10.870291666666766
30
0
10
113.07582916666669
20
-10.788800000000073
30
0
10
112.94777083333335
20
-10.474475000000098
30
0
10
112.83135416666669
20
-10.171791666666742
30
0
0
SPLINE
5
135
100
AcDbEntity
8
0
100
AcDbSpline
70
4
71
3
72
8
73
4
74
0
42
0.000000001
43
0.0000000001
44
0.0000000001
40
0
40
0
40
0
40
0
40
1
40
1
40
1
40
1
41
1
41
1
41
1
41
1
10
112.83135416666669
20
-10.171791666666742
30
0
10
112.71493749999999
20
-9.869108333333422
30
0
10
112.59270000000002
20
-9.5664250000000663
30
0
10
112.56941666666668
20
-9.5023958333334093
30
0
0
SPLINE
5
136
100
AcDbEntity
8
0
100
AcDbSpline
70
4
71
3
72
8
73
4
74
0
42
0.000000001
43
0.0000000001
44
0.0000000001
40
0
40
0
40
0
40
0
40
1
40
1
40
1
40
1
41
1
41
1
41
1
41
1
10
112.56941666666668
20
-9.5023958333334093
30
0
10
112.54613333333333
20
-9.4383666666667523
30
0
10
112.49374583333336
20
-9.2928458333334021
30
0
10
112.45300000000002
20
-9.1822500000000886
30
0
0
SPLINE
5
137
100
AcDbEntity
8
0
100
AcDbSpline
70
4
71
3
72
8
73
4
74
0
42
0.000000001
43
0.0000000001
44
0.0000000001
40
0
40
0
40
0
40
0
40
1
40
1
40
1
40
1
41
1
41
1
41
1
41
1
10
112.45300000000002
20
-9.1822500000000886
30
0
10
112.38897083333336
20
-8.990162500000082
30
0
10
112.32494166666667
20
-8.8330000000000766
30
0
10
112.21434583333335
20
-8.5710625000000675
30
0
0
SPLINE
5
138
100
AcDbEntity
8
0
100
AcDbSpline
70
4
71
3
72
8
73
4
74
0
42
0.000000001
43
0.0000000001
44
0.0000000001
40
0
40
0
40
0
40
0
40
1
40
1
40
1
40
1
41
1
41
1
41
1
41
1
10
112.21434583333335
20
-8.5710625000000675
30
0
10
112.13285416666666
20
-8.3847958333334063
30
0
10
111.998975
20
-7.7212208333334198
30
0
10
111.98151250000004
20
-7.4360000000001003
30
0
0
SPLINE
5
139
100
AcDbEntity
8
0
100
AcDbSpline
70
4
71
3
72
8
73
4
74
0
42
0.000000001
43
0.0000000001
44
0.0000000001
40
0
40
0
40
0
40
0
40
1
40
1
40
1
40
1
41
1
41
1
41
1
41
1
10
111.98151250000004
20
-7.4360000000001003
30
0
10
111.94076666666669
20
-6.6851125000000744
30
0
10
112.16195833333336
20
-6.3067583333334065
30
0
10
113.61134583333333
20
-4.6420000000000741
30
0
0
SPLINE
5
140
100
AcDbEntity
8
0
100
AcDbSpline
70
4
71
3
72
8
73
4
74
0
42
0.000000001
43
0.0000000001
44
0.0000000001
40
0
40
0
40
0
40
0
40
1
40
1
40
1
40
1
41
1
41
1
41
1
41
1
10
113.61134583333333
20
-4.6420000000000741
30
0
10
114.54850000000002
20
-3.5651458333334181
30
0
10
115.0141666666667
20
-2.8957500000000853
30
0
10
115.0141666666667
20
-2.6163500000001112
30
0
0
SPLINE
5
141
100
AcDbEntity
8
0
100
AcDbSpline
70
4
71
3
72
8
73
4
74
0
42
0.000000001
43
0.0000000001
44
0.0000000001
40
0
40
0
40
0
40
0
40
1
40
1
40
1
40
1
41
1
41
1
41
1
41
1
10
115.0141666666667
20
-2.6163500000001112
30
0
10
115.0141666666667
20
-2.5465000000000733
30
0
10
115.04327083333335
20
-2.4766500000000709
30
0
10
115.07237500000001
20
-2.4591875000000702
30
0
0
SPLINE
5
142
100
AcDbEntity
8
0
100
AcDbSpline
70
4
71
3
72
8
73
4
74
0
42
0.000000001
43
0.0000000001
44
0.0000000001
40
0
40
0
40
0
40
0
40
1
40
1
40
1
40
1
41
1
41
1
41
1
41
1
10
115.07237500000001
20
-2.4591875000000702
30
0
10
115.10730000000004
20
-2.4417250000001052
30
0
10
115.13058333333335
20
-2.2845625000000642
30
0
10
115.13058333333335
20
-2.1099375000000937
30
0
0
SPLINE
5
143
100
AcDbEntity
8
0
100
AcDbSpline
70
4
71
3
72
8
73
4
74
0
42
0.000000001
43
0.0000000001
44
0.0000000001
40
0
40
0
40
0
40
0
40
1
40
1
40
1
40
1
41
1
41
1
41
1
41
1
10
115.13058333333335
20
-2.1099375000000937
30
0
10
115.13058333333335
20
-1.9353125000000879
30
0
10
115.10730000000004
20
-1.7781500000000825
30
0
10
115.07237500000001
20
-1.7606875000000819
30
0
0
SPLINE
5
144
100
AcDbEntity
8
0
100
AcDbSpline
70
4
71
3
72
8
73
4
74
0
42
0.000000001
43
0.0000000001
44
0.0000000001
40
0
40
0
40
0
40
0
40
1
40
1
40
1
40
1
41
1
41
1
41
1
41
1
10
115.07237500000001
20
-1.7606875000000819
30
0
10
115.04327083333335
20
-1.7432250000000813
30
0
10
115.0141666666667
20
-1.6500916666667684
30
0
10
115.0141666666667
20
-1.5627791666667299
30
0
0
SPLINE
5
145
100
AcDbEntity
8
0
100
AcDbSpline
70
4
71
3
72
8
73
4
74
0
42
0.000000001
43
0.0000000001
44
0.0000000001
40
0
40
0
40
0
40
0
40
1
40
1
40
1
40
1
41
1
41
1
41
1
41
1
10
115.0141666666667
20
-1.5627791666667299
30
0
10
115.0141666666667
20
-1.4754666666667624
30
0
10
114.99088333333334
20
-1.382333333333414
30
0
10
114.96760000000003
20
-1.3474083333334128
30
0
0
SPLINE
5
146
100
AcDbEntity
8
0
100
AcDbSpline
70
4
71
3
72
8
73
4
74
0
42
0.000000001
43
0.0000000001
44
0.0000000001
40
0
40
0
40
0
40
0
40
1
40
1
40
1
40
1
41
1
41
1
41
1
41
1
10
114.96760000000003
20
-1.3474083333334128
30
0
10
114.93849583333335
20
-1.318304166666757
30
0
10
114.88028749999999
20
-1.2018875000000979
30
0
10
114.83372083333335
20
-1.0912916666667489
30
0
0
SPLINE
5
147
100
AcDbEntity
8
0
100
AcDbSpline
70
4
71
3
72
8
73
4
74
0
42
0.000000001
43
0.0000000001
44
0.0000000001
40
0
40
0
40
0
40
0
40
1
40
1
40
1
40
1
41
1
41
1
41
1
41
1
10
114.83372083333335
20
-1.0912916666667489
30
0
10
114.75222916666668
20
-0.87010000000008647
30
0
10
114.25163750000002
20
-0.0027958333334372806
30
0
10
113.70447916666669
20
0.88779166666659348
30
0
0
SPLINE
5
148
100
AcDbEntity
8
0
100
AcDbSpline
70
4
71
3
72
8
73
4
74
0
42
0.000000001
43
0.0000000001
44
0.0000000001
40
0
40
0
40
0
40
0
40
1
40
1
40
1
40
1
41
1
41
1
41
1
41
1
10
113.70447916666669
20
0.88779166666659348
30
0
10
113.38433333333336
20
1.4058458333332304
30
0
10
113.0583666666667
20
2.0344958333332523
30
0
10
112.84299583333335
20
2.5292666666665791
30
0
0
SPLINE
5
149
100
AcDbEntity
8
0
100
AcDbSpline
70
4
71
3
72
8
73
4
74
0
42
0.000000001
43
0.0000000001
44
0.0000000001
40
0
40
0
40
0
40
0
40
1
40
1
40
1
40
1
41
1
41
1
41
1
41
1
10
112.84299583333335
20
2.5292666666665791
30
0
10
112.79060833333334
20
2.6515041666665833
30
0
10
112.72075833333334
20
2.9134416666665923
30
0
10
112.68583333333333
20
3.1171708333332542
30
0
0
SPLINE
5
150
100
AcDbEntity
8
0
100
AcDbSpline
70
4
71
3
72
8
73
4
74
0
42
0.000000001
43
0.0000000001
44
0.0000000001
40
0
40
0
40
0
40
0
40
0.81719933745923834
40
0.81719933745923834
40
0.81719933745923834
40
0.81719933745923834
41
1
41
1
41
1
41
1
10
112.68583333333333
20
3.1171708333332542
30
0
10
112.60496805389451
20
3.6213896345400816
30
0
10
112.68347954880953
20
3.8962613702133035
30
0
10
113.3915118174062
20
4.8979572822289716
30
0
0
SPLINE
5
151
100
AcDbEntity
8
0
100
AcDbSpline
70
4
71
3
72
8
73
4
74
0
42
0.000000001
43
0.0000000001
44
0.0000000001
40
0.81719933745954676
40
0.81719933745954676
40
0.81719933745954676
40
0.81719933745954676
40
1
40
1
40
1
40
1
41
1
41
1
41
1
41
1
10
113.39151181740701
20
4.897957282230105
30
0
10
113.54989271894075
20
5.1220282866804245
30
0
10
113.73977355022419
20
5.3824680837938939
30
0
10
113.96641666666669
20
5.6899791666665811
30
0
0
SPLINE
5
152
100
AcDbEntity
8
0
100
AcDbSpline
70
4
71
3
72
8
73
4
74
0
42
0.000000001
43
0.0000000001
44
0.0000000001
40
0
40
0
40
0
40
0
40
1
40
1
40
1
40
1
41
1
41
1
41
1
41
1
10
113.96641666666669
20
5.6899791666665811
30
0
10
114.63581250000003
20
6.6038499999999223
30
0
10
114.81043749999999
20
6.8774291666665865
30
0
10
115.0840166666667
20
7.5002583333332629
30
0
0
SPLINE
5
153
100
AcDbEntity
8
0
100
AcDbSpline
70
4
71
3
72
8
73
4
74
0
42
0.000000001
43
0.0000000001
44
0.0000000001
40
0
40
0
40
0
40
0
40
1
40
1
40
1
40
1
41
1
41
1
41
1
41
1
10
115.0840166666667
20
7.5002583333332629
30
0
10
115.17715000000001
20
7.7039874999999247
30
0
10
115.09565833333335
20
8.6702458333332686
30
0
10
114.95595833333334
20
9.0078541666665899
30
0
0
SPLINE
5
154
100
AcDbEntity
8
0
100
AcDbSpline
70
4
71
3
72
8
73
4
74
0
42
0.000000001
43
0.0000000001
44
0.0000000001
40
0
40
0
40
0
40
0
40
1
40
1
40
1
40
1
41
1
41
1
41
1
41
1
10
114.95595833333334
20
9.0078541666665899
30
0
10
114.93267500000003
20
9.0718833333332469
30
0
10
114.88028749999999
20
9.2406874999999076
30
0
10
114.83954166666669
20
9.3862083333332578
30
0
0
SPLINE
5
155
100
AcDbEntity
8
0
100
AcDbSpline
70
4
71
3
72
8
73
4
74
0
42
0.000000001
43
0.0000000001
44
0.0000000001
40
0
40
0
40
0
40
0
40
1
40
1
40
1
40
1
41
1
41
1
41
1
41
1
10
114.83954166666669
20
9.3862083333332578
30
0
10
114.79879583333334
20
9.5317291666665724
30
0
10
114.63581250000003
20
9.9217249999999311
30
0
10
114.47865000000002
20
10.253512499999907
30
0
0
SPLINE
5
156
100
AcDbEntity
8
0
100
AcDbSpline
70
4
71
3
72
8
73
4
74
0
42
0.000000001
43
0.0000000001
44
0.0000000001
40
0
40
0
40
0
40
0
40
1
40
1
40
1
40
1
41
1
41
1
41
1
41
1
10
114.47865000000002
20
10.253512499999907
30
0
10
113.42507916666668
20
12.477070833333258
30
0
10
111.64972500000003
20
14.543466666666603
30
0
10
110.24108333333332
20
15.18957916666659
30
0
0
SPLINE
5
157
100
AcDbEntity
8
0
100
AcDbSpline
70
4
71
3
72
8
73
4
74
0
42
0.000000001
43
0.0000000001
44
0.0000000001
40
0
40
0
40
0
40
0
40
1
40
1
40
1
40
1
41
1
41
1
41
1
41
1
10
110.24108333333332
20
15.18957916666659
30
0
10
109.73467083333334
20
15.422412499999908
30
0
10
108.73930833333334
20
15.62614166666657
30
0
10
107.62170833333334
20
15.736737499999919
30
0
0
SPLINE
5
158
100
AcDbEntity
8
0
100
AcDbSpline
70
4
71
3
72
8
73
4
74
0
42
0.000000001
43
0.0000000001
44
0.0000000001
40
0
40
0
40
0
40
0
40
1
40
1
40
1
40
1
41
1
41
1
41
1
41
1
10
107.62170833333334
20
15.736737499999919
30
0
10
107.28410000000002
20
15.765841666666574
30
0
10
106.73694166666665
20
15.818229166666576
30
0
10
106.39933333333333
20
15.853154166666577
30
0
0
SPLINE
5
159
100
AcDbEntity
8
0
100
AcDbSpline
70
4
71
3
72
8
73
4
74
0
42
0.000000001
43
0.0000000001
44
0.0000000001
40
0
40
0
40
0
40
0
40
1
40
1
40
1
40
1
41
1
41
1
41
1
41
1
10
106.39933333333333
20
15.853154166666577
30
0
10
104.40860833333333
20
16.045241666666584
30
0
10
97.522562500000006
20
16.132554166666587
30
0
10
93.081266666666679
20
16.021958333333238
30
0
0
SPLINE
5
160
100
AcDbEntity
8
0
100
AcDbSpline
70
4
71
3
72
8
73
4
74
0
42
0.000000001
43
0.0000000001
44
0.0000000001
40
0
40
0
40
0
40
0
40
1
40
1
40
1
40
1
41
1
41
1
41
1
41
1
10
93.081266666666679
20
16.021958333333238
30
0
10
91.474716666666694
20
15.981212499999927
30
0
10
90.141745833333346
20
15.957929166666581
30
0
10
90.130104166666683
20
15.975391666666582
30
0
0
SPLINE
5
161
100
AcDbEntity
8
0
100
AcDbSpline
70
4
71
3
72
8
73
4
74
0
42
0.000000001
43
0.0000000001
44
0.0000000001
40
0
40
0
40
0
40
0
40
1
40
1
40
1
40
1
41
1
41
1
41
1
41
1
10
90.130104166666683
20
15.975391666666582
30
0
10
90.11264166666669
20
15.992854166666582
30
0
10
90.042791666666687
20
16.161658333333243
30
0
10
89.972941666666685
20
16.347924999999904
30
0
0
SPLINE
5
162
100
AcDbEntity
8
0
100
AcDbSpline
70
4
71
3
72
8
73
4
74
0
42
0.000000001
43
0.0000000001
44
0.0000000001
40
0
40
0
40
0
40
0
40
1
40
1
40
1
40
1
41
1
41
1
41
1
41
1
10
89.972941666666685
20
16.347924999999904
30
0
10
89.641154166666666
20
17.255974999999935
30
0
10
89.83324166666668
20
18.932374999999922
30
0
10
90.456070833333357
20
20.6204166666666
30
0
0
SPLINE
5
163
100
AcDbEntity
8
0
100
AcDbSpline
70
4
71
3
72
8
73
4
74
0
42
0.000000001
43
0.0000000001
44
0.0000000001
40
0
40
0
40
0
40
0
40
1
40
1
40
1
40
1
41
1
41
1
41
1
41
1
10
90.456070833333357
20
20.6204166666666
30
0
10
90.653979166666673
20
21.150112499999928
30
0
10
90.77621666666667
20
21.446974999999938
30
0
10
90.86352916666668
20
21.621599999999908
30
0
0
SPLINE
5
164
100
AcDbEntity
8
0
100
AcDbSpline
70
4
71
3
72
8
73
4
74
0
42
0.000000001
43
0.0000000001
44
0.0000000001
40
0
40
0
40
0
40
0
40
1
40
1
40
1
40
1
41
1
41
1
41
1
41
1
10
90.86352916666668
20
21.621599999999908
30
0
10
90.892633333333336
20
21.679808333333256
30
0
10
90.915916666666675
20
21.749658333333258
30
0
10
90.915916666666675
20
21.784583333333259
30
0
0
SPLINE
5
165
100
AcDbEntity
8
0
100
AcDbSpline
70
4
71
3
72
8
73
4
74
0
42
0.000000001
43
0.0000000001
44
0.0000000001
40
0
40
0
40
0
40
0
40
1
40
1
40
1
40
1
41
1
41
1
41
1
41
1
10
90.915916666666675
20
21.784583333333259
30
0
10
90.915916666666675
20
21.813687499999915
30
0
10
91.032333333333341
20
22.09890833333327
30
0
10
91.172033333333346
20
22.407412499999936
30
0
0
SPLINE
5
166
100
AcDbEntity
8
0
100
AcDbSpline
70
4
71
3
72
8
73
4
74
0
42
0.000000001
43
0.0000000001
44
0.0000000001
40
0
40
0
40
0
40
0
40
1
40
1
40
1
40
1
41
1
41
1
41
1
41
1
10
91.172033333333346
20
22.407412499999936
30
0
10
91.311733333333351
20
22.721737499999911
30
0
10
91.498000000000005
20
23.13501666666658
30
0
10
91.585312500000015
20
23.327104166666587
30
0
0
SPLINE
5
167
100
AcDbEntity
8
0
100
AcDbSpline
70
4
71
3
72
8
73
4
74
0
42
0.000000001
43
0.0000000001
44
0.0000000001
40
0
40
0
40
0
40
0
40
1
40
1
40
1
40
1
41
1
41
1
41
1
41
1
10
91.585312500000015
20
23.327104166666587
30
0
10
91.672625000000011
20
23.519191666666593
30
0
10
92.266350000000031
20
24.735745833333254
30
0
10
92.906641666666673
20
26.033791666666573
30
0
0
SPLINE
5
168
100
AcDbEntity
8
0
100
AcDbSpline
70
4
71
3
72
8
73
4
74
0
42
0.000000001
43
0.0000000001
44
0.0000000001
40
0
40
0
40
0
40
0
40
1
40
1
40
1
40
1
41
1
41
1
41
1
41
1
10
92.906641666666673
20
26.033791666666573
30
0
10
94.344387499999996
20
28.944208333333258
30
0
10
94.239612499999993
20
28.71719583333325
30
0
10
94.524833333333348
20
29.555395833333243
30
0
0
SPLINE
5
169
100
AcDbEntity
8
0
100
AcDbSpline
70
4
71
3
72
8
73
4
74
0
42
0.000000001
43
0.0000000001
44
0.0000000001
40
0
40
0
40
0
40
0
40
1
40
1
40
1
40
1
41
1
41
1
41
1
41
1
10
94.524833333333348
20
29.555395833333243
30
0
10
94.850800000000021
20
30.504191666666586
30
0
10
94.914829166666678
20
30.719562499999903
30
0
10
94.990500000000026
20
31.127020833333262
30
0
0
SPLINE
5
170
100
AcDbEntity
8
0
100
AcDbSpline
70
4
71
3
72
8
73
4
74
0
42
0.000000001
43
0.0000000001
44
0.0000000001
40
0
40
0
40
0
40
0
40
1
40
1
40
1
40
1
41
1
41
1
41
1
41
1
10
94.990500000000026
20
31.127020833333262
30
0
10
95.025425000000027
20
31.319108333333233
30
0
10
95.077812500000022
20
31.557762499999932
30
0
10
95.112737500000023
20
31.65671666666659
30
0
0
SPLINE
5
171
100
AcDbEntity
8
0
100
AcDbSpline
70
4
71
3
72
8
73
4
74
0
42
0.000000001
43
0.0000000001
44
0.0000000001
40
0
40
0
40
0
40
0
40
1
40
1
40
1
40
1
41
1
41
1
41
1
41
1
10
95.112737500000023
20
31.65671666666659
30
0
10
95.141841666666679
20
31.755670833333248
30
0
10
95.165124999999989
20
31.889549999999943
30
0
10
95.165124999999989
20
31.95939999999991
30
0
0
SPLINE
5
172
100
AcDbEntity
8
0
100
AcDbSpline
70
4
71
3
72
8
73
4
74
0
42
0.000000001
43
0.0000000001
44
0.0000000001
40
0
40
0
40
0
40
0
40
1
40
1
40
1
40
1
41
1
41
1
41
1
41
1
10
95.165124999999989
20
31.95939999999991
30
0
10
95.165124999999989
20
32.023429166666602
30
0
10
95.188408333333342
20
32.139845833333261
30
0
10
95.217512500000026
20
32.215516666666574
30
0
0
SPLINE
5
173
100
AcDbEntity
8
0
100
AcDbSpline
70
4
71
3
72
8
73
4
74
0
42
0.000000001
43
0.0000000001
44
0.0000000001
40
0
40
0
40
0
40
0
40
1
40
1
40
1
40
1
41
1
41
1
41
1
41
1
10
95.217512500000026
20
32.215516666666574
30
0
10
95.363033333333348
20
32.576408333333241
30
0
10
95.467808333333352
20
34.16549583333326
30
0
10
95.444524999999999
20
35.521749999999926
30
0
0
SPLINE
5
174
100
AcDbEntity
8
0
100
AcDbSpline
70
4
71
3
72
8
73
4
74
0
42
0.000000001
43
0.0000000001
44
0.0000000001
40
0
40
0
40
0
40
0
40
1
40
1
40
1
40
1
41
1
41
1
41
1
41
1
10
95.444524999999999
20
35.521749999999926
30
0
10
95.415420833333343
20
36.947854166666595
30
0
10
95.299004166666691
20
37.995604166666595
30
0
10
95.106916666666677
20
38.606791666666581
30
0
0
SPLINE
5
175
100
AcDbEntity
8
0
100
AcDbSpline
70
4
71
3
72
8
73
4
74
0
42
0.000000001
43
0.0000000001
44
0.0000000001
40
0
40
0
40
0
40
0
40
1
40
1
40
1
40
1
41
1
41
1
41
1
41
1
10
95.106916666666677
20
38.606791666666581
30
0
10
95.083633333333339
20
38.688283333333274
30
0
10
95.03124583333333
20
38.909474999999937
30
0
10
94.990500000000026
20
39.101562499999908
30
0
0
SPLINE
5
176
100
AcDbEntity
8
0
100
AcDbSpline
70
4
71
3
72
8
73
4
74
0
42
0.000000001
43
0.0000000001
44
0.0000000001
40
0
40
0
40
0
40
0
40
1
40
1
40
1
40
1
41
1
41
1
41
1
41
1
10
94.990500000000026
20
39.101562499999908
30
0
10
94.862441666666669
20
39.706929166666583
30
0
10
94.548116666666658
20
40.550949999999929
30
0
10
94.193045833333343
20
41.255270833333256
30
0
0
SPLINE
5
177
100
AcDbEntity
8
0
100
AcDbSpline
70
4
71
3
72
8
73
4
74
0
42
0.000000001
43
0.0000000001
44
0.0000000001
40
0
40
0
40
0
40
0
40
1
40
1
40
1
40
1
41
1
41
1
41
1
41
1
10
94.193045833333343
20
41.255270833333256
30
0
10
93.56439583333335
20
42.495108333333263
30
0
10
92.3885875
20
43.72330416666658
30
0
10
91.090541666666681
20
44.497474999999923
30
0
0
SPLINE
5
178
100
AcDbEntity
8
0
100
AcDbSpline
70
4
71
3
72
8
73
4
74
0
42
0.000000001
43
0.0000000001
44
0.0000000001
40
0
40
0
40
0
40
0
40
1
40
1
40
1
40
1
41
1
41
1
41
1
41
1
10
91.090541666666681
20
44.497474999999923
30
0
10
90.199954166666686
20
45.027170833333287
30
0
10
89.192949999999996
20
45.399704166666609
30
0
10
88.2674375
20
45.545224999999917
30
0
0
SPLINE
5
179
100
AcDbEntity
8
0
100
AcDbSpline
70
4
71
3
72
8
73
4
74
0
42
0.000000001
43
0.0000000001
44
0.0000000001
40
0
40
0
40
0
40
0
40
1
40
1
40
1
40
1
41
1
41
1
41
1
41
1
10
88.2674375
20
45.545224999999917
30
0
10
87.766845833333363
20
45.620895833333265
30
0
10
86.602679166666675
20
45.655820833333266
30
0
10
86.46297916666667
20
45.597612499999926
30
0
0
SPLINE
5
180
100
AcDbEntity
8
0
100
AcDbSpline
70
4
71
3
72
8
73
4
74
0
42
0.000000001
43
0.0000000001
44
0.0000000001
40
0
40
0
40
0
40
0
40
1
40
1
40
1
40
1
41
1
41
1
41
1
41
1
10
86.46297916666667
20
45.597612499999926
30
0
10
86.398950000000013
20
45.56850833333327
30
0
10
86.235966666666656
20
45.516120833333261
30
0
10
86.102087499999996
20
45.475374999999914
30
0
0
SPLINE
5
181
100
AcDbEntity
8
0
100
AcDbSpline
70
4
71
3
72
8
73
4
74
0
42
0.000000001
43
0.0000000001
44
0.0000000001
40
0
40
0
40
0
40
0
40
1
40
1
40
1
40
1
41
1
41
1
41
1
41
1
10
86.102087499999996
20
45.475374999999914
30
0
10
85.811045833333338
20
45.388062499999918
30
0
10
85.455975000000009
20
45.108662499999937
30
0
10
85.374483333333359
20
44.89911249999993
30
0
0
SPLINE
5
182
100
AcDbEntity
8
0
100
AcDbSpline
70
4
71
3
72
8
73
4
74
0
42
0.000000001
43
0.0000000001
44
0.0000000001
40
0
40
0
40
0
40
0
40
1
40
1
40
1
40
1
41
1
41
1
41
1
41
1
10
85.374483333333359
20
44.89911249999993
30
0
10
85.339558333333358
20
44.81762083333328
30
0
10
85.292991666666694
20
44.462549999999922
30
0
10
85.26388750000001
20
44.107479166666593
30
0
0
SPLINE
5
183
100
AcDbEntity
8
0
100
AcDbSpline
70
4
71
3
72
8
73
4
74
0
42
0.000000001
43
0.0000000001
44
0.0000000001
40
0
40
0
40
0
40
0
40
1
40
1
40
1
40
1
41
1
41
1
41
1
41
1
10
85.26388750000001
20
44.107479166666593
30
0
10
85.234783333333354
20
43.758229166666581
30
0
10
85.182395833333345
20
43.181966666666597
30
0
10
85.153291666666689
20
42.826895833333239
30
0
0
SPLINE
5
184
100
AcDbEntity
8
0
100
AcDbSpline
70
4
71
3
72
8
73
4
74
0
42
0.000000001
43
0.0000000001
44
0.0000000001
40
0
40
0
40
0
40
0
40
1
40
1
40
1
40
1
41
1
41
1
41
1
41
1
10
85.153291666666689
20
42.826895833333239
30
0
10
85.124187500000005
20
42.47764583333327
30
0
10
85.071799999999996
20
41.872279166666587
30
0
10
85.04269583333334
20
41.488104166666574
30
0
0
SPLINE
5
185
100
AcDbEntity
8
0
100
AcDbSpline
70
4
71
3
72
8
73
4
74
0
42
0.000000001
43
0.0000000001
44
0.0000000001
40
0
40
0
40
0
40
0
40
1
40
1
40
1
40
1
41
1
41
1
41
1
41
1
10
85.04269583333334
20
41.488104166666574
30
0
10
84.902995833333335
20
39.74767499999993
30
0
10
84.431508333333355
20
36.761587499999933
30
0
10
84.047333333333341
20
35.172499999999914
30
0
0
SPLINE
5
186
100
AcDbEntity
8
0
100
AcDbSpline
70
4
71
3
72
8
73
4
74
0
42
0.000000001
43
0.0000000001
44
0.0000000001
40
0
40
0
40
0
40
0
40
1
40
1
40
1
40
1
41
1
41
1
41
1
41
1
10
84.047333333333341
20
35.172499999999914
30
0
10
83.831962500000031
20
34.281912499999919
30
0
10
83.529279166666669
20
33.26908749999992
30
0
10
83.34883333333336
20
32.815062499999904
30
0
0
SPLINE
5
187
100
AcDbEntity
8
0
100
AcDbSpline
70
4
71
3
72
8
73
4
74
0
42
0.000000001
43
0.0000000001
44
0.0000000001
40
0
40
0
40
0
40
0
40
1
40
1
40
1
40
1
41
1
41
1
41
1
41
1
10
83.34883333333336
20
32.815062499999904
30
0
10
83.325550000000007
20
32.751033333333247
30
0
10
83.244058333333356
20
32.54148333333324
30
0
10
83.174208333333354
20
32.349395833333269
30
0
0
SPLINE
5
188
100
AcDbEntity
8
0
100
AcDbSpline
70
4
71
3
72
8
73
4
74
0
42
0.000000001
43
0.0000000001
44
0.0000000001
40
0
40
0
40
0
40
0
40
1
40
1
40
1
40
1
41
1
41
1
41
1
41
1
10
83.174208333333354
20
32.349395833333269
30
0
10
82.34182916666667
20
30.096733333333262
30
0
10
81.06706666666669
20
28.362124999999928
30
0
10
79.128729166666659
20
26.848708333333256
30
0
0
SPLINE
5
189
100
AcDbEntity
8
0
100
AcDbSpline
70
4
71
3
72
8
73
4
74
0
42
0.000000001
43
0.0000000001
44
0.0000000001
40
0
40
0
40
0
40
0
40
1
40
1
40
1
40
1
41
1
41
1
41
1
41
1
10
79.128729166666659
20
26.848708333333256
30
0
10
79.029775000000001
20
26.767216666666599
30
0
10
78.843508333333347
20
26.627516666666594
30
0
10
78.721270833333335
20
26.528562499999936
30
0
0
SPLINE
5
190
100
AcDbEntity
8
0
100
AcDbSpline
70
4
71
3
72
8
73
4
74
0
42
0.000000001
43
0.0000000001
44
0.0000000001
40
0
40
0
40
0
40
0
40
1
40
1
40
1
40
1
41
1
41
1
41
1
41
1
10
78.721270833333335
20
26.528562499999936
30
0
10
77.533820833333337
20
25.603049999999904
30
0
10
76.212491666666665
20
24.351570833333241
30
0
10
75.77010833333334
20
23.73456249999991
30
0
0
SPLINE
5
191
100
AcDbEntity
8
0
100
AcDbSpline
70
4
71
3
72
8
73
4
74
0
42
0.000000001
43
0.0000000001
44
0.0000000001
40
0
40
0
40
0
40
0
40
1
40
1
40
1
40
1
41
1
41
1
41
1
41
1
10
75.77010833333334
20
23.73456249999991
30
0
10
75.461604166666675
20
23.297999999999931
30
0
10
75.123995833333353
20
22.727558333333256
30
0
10
74.972654166666658
20
22.366666666666589
30
0
0
SPLINE
5
192
100
AcDbEntity
8
0
100
AcDbSpline
70
4
71
3
72
8
73
4
74
0
42
0.000000001
43
0.0000000001
44
0.0000000001
40
0
40
0
40
0
40
0
40
1
40
1
40
1
40
1
41
1
41
1
41
1
41
1
10
74.972654166666658
20
22.366666666666589
30
0
10
74.896983333333353
20
22.192041666666583
30
0
10
74.774745833333341
20
21.918462499999919
30
0
10
74.704895833333339
20
21.755479166666603
30
0
0
SPLINE
5
193
100
AcDbEntity
8
0
100
AcDbSpline
70
4
71
3
72
8
73
4
74
0
42
0.000000001
43
0.0000000001
44
0.0000000001
40
0
40
0
40
0
40
0
40
1
40
1
40
1
40
1
41
1
41
1
41
1
41
1
10
74.704895833333339
20
21.755479166666603
30
0
10
74.373108333333334
20
21.022054166666578
30
0
10
74.326541666666671
20
20.905637499999919
30
0
10
74.326541666666671
20
20.835787499999917
30
0
0
SPLINE
5
194
100
AcDbEntity
8
0
100
AcDbSpline
70
4
71
3
72
8
73
4
74
0
42
0.000000001
43
0.0000000001
44
0.0000000001
40
0
40
0
40
0
40
0
40
1
40
1
40
1
40
1
41
1
41
1
41
1
41
1
10
74.326541666666671
20
20.835787499999917
30
0
10
74.326541666666671
20
20.79504166666657
30
0
10
74.303258333333332
20
20.736833333333259
30
0
10
74.279975000000022
20
20.707729166666567
30
0
0
SPLINE
5
195
100
AcDbEntity
8
0
100
AcDbSpline
70
4
71
3
72
8
73
4
74
0
42
0.000000001
43
0.0000000001
44
0.0000000001
40
0
40
0
40
0
40
0
40
1
40
1
40
1
40
1
41
1
41
1
41
1
41
1
10
74.279975000000022
20
20.707729166666567
30
0
10
74.250870833333323
20
20.672804166666602
30
0
10
74.186841666666666
20
20.538924999999907
30
0
10
74.134454166666671
20
20.405045833333247
30
0
0
SPLINE
5
196
100
AcDbEntity
8
0
100
AcDbSpline
70
4
71
3
72
8
73
4
74
0
42
0.000000001
43
0.0000000001
44
0.0000000001
40
0
40
0
40
0
40
0
40
1
40
1
40
1
40
1
41
1
41
1
41
1
41
1
10
74.134454166666671
20
20.405045833333247
30
0
10
74.082066666666663
20
20.271166666666588
30
0
10
73.983112500000004
20
20.03833333333327
30
0
10
73.919083333333347
20
19.89281249999992
30
0
0
SPLINE
5
197
100
AcDbEntity
8
0
100
AcDbSpline
70
4
71
3
72
8
73
4
74
0
42
0.000000001
43
0.0000000001
44
0.0000000001
40
0
40
0
40
0
40
0
40
1
40
1
40
1
40
1
41
1
41
1
41
1
41
1
10
73.919083333333347
20
19.89281249999992
30
0
10
73.85505416666669
20
19.74729166666657
30
0
10
73.750279166666687
20
19.514458333333252
30
0
10
73.68625000000003
20
19.368937499999902
30
0
0
SPLINE
5
198
100
AcDbEntity
8
0
100
AcDbSpline
70
4
71
3
72
8
73
4
74
0
42
0.000000001
43
0.0000000001
44
0.0000000001
40
0
40
0
40
0
40
0
40
1
40
1
40
1
40
1
41
1
41
1
41
1
41
1
10
73.68625000000003
20
19.368937499999902
30
0
10
73.622220833333373
20
19.223416666666587
30
0
10
73.569833333333335
20
19.072074999999927
30
0
10
73.569833333333335
20
19.03132916666658
30
0
0
SPLINE
5
199
100
AcDbEntity
8
0
100
AcDbSpline
70
4
71
3
72
8
73
4
74
0
42
0.000000001
43
0.0000000001
44
0.0000000001
40
0
40
0
40
0
40
0
40
1
40
1
40
1
40
1
41
1
41
1
41
1
41
1
10
73.569833333333335
20
19.03132916666658
30
0
10
73.569833333333335
20
18.990583333333234
30
0
10
73.546550000000025
20
18.932374999999922
30
0
10
73.517445833333369
20
18.903270833333266
30
0
0
SPLINE
5
200
100
AcDbEntity
8
0
100
AcDbSpline
70
4
71
3
72
8
73
4
74
0
42
0.000000001
43
0.0000000001
44
0.0000000001
40
0
40
0
40
0
40
0
40
1
40
1
40
1
40
1
41
1
41
1
41
1
41
1
10
73.517445833333369
20
18.903270833333266
30
0
10
73.494162499999987
20
18.868345833333265
30
0
10
73.360283333333328
20
18.5773041666666
30
0
10
73.232225000000014
20
18.257158333333244
30
0
0
SPLINE
5
201
100
AcDbEntity
8
0
100
AcDbSpline
70
4
71
3
72
8
73
4
74
0
42
0.000000001
43
0.0000000001
44
0.0000000001
40
0
40
0
40
0
40
0
40
1
40
1
40
1
40
1
41
1
41
1
41
1
41
1
10
73.232225000000014
20
18.257158333333244
30
0
10
73.098345833333354
20
17.931191666666578
30
0
10
72.912079166666658
20
17.500449999999908
30
0
10
72.818945833333345
20
17.296720833333247
30
0
0
SPLINE
5
202
100
AcDbEntity
8
0
100
AcDbSpline
70
4
71
3
72
8
73
4
74
0
42
0.000000001
43
0.0000000001
44
0.0000000001
40
0
40
0
40
0
40
0
40
1
40
1
40
1
40
1
41
1
41
1
41
1
41
1
10
72.818945833333345
20
17.296720833333247
30
0
10
72.725812500000032
20
17.092991666666585
30
0
10
72.591933333333373
20
16.796129166666574
30
0
10
72.52208333333337
20
16.633145833333277
30
0
0
SPLINE
5
203
100
AcDbEntity
8
0
100
AcDbSpline
70
4
71
3
72
8
73
4
74
0
42
0.000000001
43
0.0000000001
44
0.0000000001
40
0
40
0
40
0
40
0
40
1
40
1
40
1
40
1
41
1
41
1
41
1
41
1
10
72.52208333333337
20
16.633145833333277
30
0
10
72.324174999999983
20
16.184941666666607
30
0
10
71.154187499999978
20
13.827504166666596
30
0
10
70.915533333333315
20
13.402583333333272
30
0
0
SPLINE
5
204
100
AcDbEntity
8
0
100
AcDbSpline
70
4
71
3
72
8
73
4
74
0
42
0.000000001
43
0.0000000001
44
0.0000000001
40
0
40
0
40
0
40
0
40
1
40
1
40
1
40
1
41
1
41
1
41
1
41
1
10
70.915533333333315
20
13.402583333333272
30
0
10
70.804937500000037
20
13.193033333333265
30
0
10
70.624491666666685
20
12.867066666666599
30
0
10
70.519716666666682
20
12.674979166666592
30
0
0
SPLINE
5
205
100
AcDbEntity
8
0
100
AcDbSpline
70
4
71
3
72
8
73
4
74
0
42
0.000000001
43
0.0000000001
44
0.0000000001
40
0
40
0
40
0
40
0
40
1
40
1
40
1
40
1
41
1
41
1
41
1
41
1
10
70.519716666666682
20
12.674979166666592
30
0
10
70.414941666666678
20
12.482891666666621
30
0
10
70.269420833333328
20
12.226774999999922
30
0
10
70.199570833333325
20
12.110358333333263
30
0
0
SPLINE
5
206
100
AcDbEntity
8
0
100
AcDbSpline
70
4
71
3
72
8
73
4
74
0
42
0.000000001
43
0.0000000001
44
0.0000000001
40
0
40
0
40
0
40
0
40
1
40
1
40
1
40
1
41
1
41
1
41
1
41
1
10
70.199570833333325
20
12.110358333333263
30
0
10
70.135541666666668
20
11.988120833333259
30
0
10
70.030766666666665
20
11.801854166666597
30
0
10
69.966737500000008
20
11.697079166666594
30
0
0
SPLINE
5
207
100
AcDbEntity
8
0
100
AcDbSpline
70
4
71
3
72
8
73
4
74
0
42
0.000000001
43
0.0000000001
44
0.0000000001
40
0
40
0
40
0
40
0
40
1
40
1
40
1
40
1
41
1
41
1
41
1
41
1
10
69.966737500000008
20
11.697079166666594
30
0
10
69.768829166666691
20
11.347829166666617
30
0
10
68.668691666666689
20
9.6539666666665944
30
0
10
68.395112500000025
20
9.2756124999999265
30
0
0
SPLINE
5
208
100
AcDbEntity
8
0
100
AcDbSpline
70
4
71
3
72
8
73
4
74
0
42
0.000000001
43
0.0000000001
44
0.0000000001
40
0
40
0
40
0
40
0
40
0.97559450621658295
40
0.97559450621658295
40
0.97559450621658295
40
0.97559450621658295
41
1
41
1
41
1
41
1
10
68.395112500000025
20
9.2756124999999265
30
0
10
67.219606484528299
20
7.6514834158216471
30
0
10
65.877895076198826
20
6.3597651173589709
30
0
10
64.85642547953853
20
5.8436650576251692
30
0
0
SPLINE
5
209
100
AcDbEntity
8
0
100
AcDbSpline
70
0
71
3
72
10
73
6
74
0
42
0.000000001
43
0.0000000001
44
0.0000000001
40
0
40
0
40
0
40
0
40
0.01152360268391869
40
0.01152360268391869
40
0.023047205367816459
40
0.023047205367816459
40
0.023047205367816459
40
0.023047205367816459
10
64.651935419413974
20
5.7373704773568646
30
0
10
64.685811532353569
20
5.7554782492629597
30
0
10
64.719791697519128
20
5.7733906834486204
30
0
10
64.787956748094913
20
5.8088230924151985
30
0
10
64.822141067762203
20
5.8263427731210582
30
0
10
64.85642547953853
20
5.8436650576252047
30
0
0
SPLINE
5
210
100
AcDbEntity
8
0
100
AcDbSpline
70
4
71
2
72
6
73
3
74
0
42
0.000000001
43
0.0000000001
44
0.0000000001
40
0.0071391437274284687
40
0.0071391437274284687
40
0.0071391437274284687
40
0.26579593128104539
40
0.26579593128104539
40
0.26579593128104539
41
1.0895384262082339
41
2.6735312594647773
41
1.5017424452232127
10
64.651935419413974
20
5.737370477356829
30
0
10
63.791282030093825
20
5.2773261006065253
30
0
10
62.829984120254856
20
5.0874672246491626
30
3.5527136788005009e-14
0
SPLINE
5
211
100
AcDbEntity
8
0
100
AcDbSpline
70
0
71
3
72
10
73
6
74
0
42
0.000000001
43
0.0000000001
44
0.0000000001
40
0
40
0
40
0
40
0
40
0.097515855456527162
40
0.097515855456527162
40
0.19503171091304755
40
0.19503171091304755
40
0.19503171091304755
40
0.19503171091304755
10
60.89238642462044
20
4.8979572822289761
30
0
10
61.217439276142201
20
4.8979572822289761
30
0
10
61.542298909028418
20
4.9138061856713087
30
0
10
62.189317243718151
20
4.9770888823983803
30
0
10
62.511091343450872
20
5.0244850590424006
30
0
10
62.829984120255077
20
5.0874672246491981
30
0
0
LINE
5
212
100
AcDbEntity
8
0
100
AcDbLine
10
60.89238642462044
20
4.8979572822289761
30
0
11
5.6202203864454887
21
4.8979572822289761
31
0
0
ENDSEC
0
SECTION
2
OBJECTS
0
DICTIONARY
5
C
100
AcDbDictionary
3
ACAD_GROUP
350
D
3
ACAD_MLINESTYLE
350
17
0
DICTIONARY
5
D
100
AcDbDictionary
0
DICTIONARY
5
1A
330
C
100
AcDbDictionary
0
DICTIONARY
5
17
100
AcDbDictionary
0
ENDSEC
0
EOF
